<svg width="1017" height="512" xmlns="http://www.w3.org/2000/svg" >
 <!-- Created with SVG-edit - http://svg-edit.googlecode.com/ -->
 <g>
  <title>Layer 1</title>
  <rect x="1" y="1" width="1017" height="681" fill="green" id="svg_1"/>
  <rect x="0" stroke="#007f00" id="svg_1" height="512" width="113" y="170" fill="#0ea00e"/>
  <rect id="svg_2" stroke="#007f00" height="512" width="113" y="170" x="226" fill="#0f9e0f"/>
  <rect y="170" stroke="#007f00" id="svg_3" height="512" width="113" x="452" fill="#0f9e0f"/>
  <rect stroke="#007f00" id="svg_4" height="512" width="113" y="170" x="678" fill="#0f9e0f"/>
  <rect stroke="#007f00" id="svg_5" height="512" width="113" y="170" x="904" fill="#0f9e0f"/>
  <!-- Final lines on field -->
  <line id="svg_6" y2="672" x2="10" y1="180" x1="10" stroke-width="5" stroke="#ffffff" fill="none"/>
  <line id="svg_7" y2="672" x2="1007" y1="180" x1="1007" stroke-width="5" stroke="#ffffff" fill="none"/>
  <line fill="none" stroke-width="5" x1="7.65" y1="180" x2="1009" y2="180" id="svg_8" stroke="#ffffff"/>
  <line fill="none" stroke-width="5" x1="8.32501" y1="670.5" x2="1009.67501" y2="670.5" stroke="#ffffff" id="svg_9"/>
  <!-- small rectangle -->
  <path id="svg_10" fill-opacity="0" stroke-width="5" stroke="white" d="m12,334.39999l55,0l0,182.20004l-55,0l0,-182.20004z"/>
  <path d="m1005,334.39999l-55,0l0,182.20004l55,0l0,-182.20004z" stroke-width="5" fill-opacity="0" id="svg_11" fill="black" stroke="white"/>
  <!-- rectangle -->
  <path fill="#ffffff" id="svg_12" fill-opacity="0" stroke-width="5" d="m12,266.39999l102,0l0,318.19998l-102,0l0,-318.19998z" stroke="white"/>
  <path fill="#ffffff" id="svg_13" fill-opacity="0" stroke-width="5" d="m904,266.39996l102,0l0,318.20007l-102,0l0,-318.20007z" stroke="white"/>
  <!-- half circle -->
  <path d="m116,350.875a91.5,91.5 0 0 1 0,146.25l0,-146.25z" stroke="white" stroke-width="5" fill="none" id="svg_14"/>
  <path id="svg_15" fill="none" stroke-width="5" stroke="white" d="m904,352.875a91.5,91.5 0 0 0 0,146.25l0,-146.25z"/>
  <!-- corners -->
  <path fill="black" d="m12,192a10,10 0 0 0 10,-10l-10,0l0,10z" stroke="white" stroke-width="5" fill-opacity="0" id="svg_16"/>
  <path id="svg_17" fill-opacity="0" stroke-width="5" stroke="white" d="m1005,659a10,10 0 0 0 -10,10l10,0l0,-10z" fill="black"/>
  <path fill="black" d="m22,668a10,10 0 0 0 -10,-10l0,10l10,0z" stroke="white" stroke-width="5" fill-opacity="0" id="svg_18"/>
  <path id="svg_19" fill-opacity="0" stroke-width="5" stroke="white" d="m994,183a10,10 0 0 0 10,10l0,-10l-10,0z" fill="black"/>
  <!-- middle circle -->
  <circle fill="black" id="svg_3" fill-opacity="0" stroke-width="5" stroke="white" r="91.5" cy="414" cx="513"/>
  <line id="svg_20" y2="670" x2="512" y1="178" x1="512" fill-opacity="0" stroke-linecap="null" stroke-linejoin="null" stroke-dasharray="null" stroke-width="5" stroke="white" fill="none"/>
 </g>
</svg>