<svg width="1017" height="512" xmlns="http://www.w3.org/2000/svg">
 <!-- Created with SVG-edit - http://svg-edit.googlecode.com/ -->
 <g id="all">
  <title>Layer 1</title>
  <rect id="svg_1" fill="green" height="512" width="1017" y="81" x="-1"/>
  <rect x="0" fill="#0ea00e" y="80" width="113" height="512" id="svg_1" stroke="#007f00"/>
  <rect fill="#0f9e0f" x="226" y="80" width="113" height="512" stroke="#007f00" id="svg_2"/>
  <rect y="80" fill="#0f9e0f" x="452" width="113" height="512" id="svg_3" stroke="#007f00"/>
  <rect fill="#0f9e0f" x="678" y="80" width="113" height="512" id="svg_4" stroke="#007f00"/>
  <rect fill="#0f9e0f" x="904" y="80" width="113" height="512" id="svg_5" stroke="#007f00"/>
  <!-- Final lines on field -->
  <line stroke="#ffffff" fill="none" stroke-width="5" x1="10" y1="90" x2="10" y2="577" id="svg_6"/>
  <line fill="none" stroke="#ffffff" stroke-width="5" x1="1007" y1="90" x2="1007" y2="582" id="svg_7"/>
  <line stroke="#ffffff" id="svg_8" y2="90" x2="1009" y1="90" x1="7.65" stroke-width="5" fill="none"/>
  <line id="svg_9" stroke="#ffffff" y2="577.5" x2="1008.67501" y1="577.5" x1="7.32501" stroke-width="5" fill="none"/>
  <!-- small rectangle -->
  <path fill="black" d="m11,237.39999l55,0l0,182.20001l-55,0l0,-182.20001z" stroke="white" stroke-width="5" fill-opacity="0" id="svg_10"/>
  <path stroke="white" fill="black" id="svg_11" fill-opacity="0" stroke-width="5" d="m1005,238.39999l-55,0l0,182.20001l55,0l0,-182.20001z"/>
  <!-- rectangle -->
  <path stroke="white" d="m11,168.39999l102,0l0,318.19995l-102,0l0,-318.19995z" stroke-width="5" fill-opacity="0" id="svg_12" fill="#ffffff"/>
  <path stroke="white" d="m904,181.39996l102,0l0,318.20004l-102,0l0,-318.20004z" stroke-width="5" fill-opacity="0" id="svg_13" fill="#ffffff"/>
  <!-- half circle -->
  <path id="svg_14" fill="none" stroke-width="5" stroke="white" d="m114,239.875a91.5,91.5 0 0 1 0,146.25l0,-146.25z"/>
  <path d="m904,263.875a91.5,91.5 0 0 0 0,146.25l0,-146.25z" stroke="white" stroke-width="5" fill="none" id="svg_15"/>
  <!-- corners -->
  <path id="svg_16" fill-opacity="0" stroke-width="5" stroke="white" d="m12,102a10,10 0 0 0 10,-10l-10,0l0,10z" fill="black"/>
  <path fill="black" d="m1004,565a10,10 0 0 0 -10,10l10,0l0,-10z" stroke="white" stroke-width="5" fill-opacity="0" id="svg_17"/>
  <path id="svg_18" fill-opacity="0" stroke-width="5" stroke="white" d="m23,577a10,10 0 0 0 -10,-10l0,10l10,0z" fill="black"/>
  <path fill="black" d="m994,93a10,10 0 0 0 10,10l0,-10l-10,0z" stroke="white" stroke-width="5" fill-opacity="0" id="svg_19"/>
  <!-- middle circle -->
  <circle cx="517" cy="329" r="91.5" stroke="white" stroke-width="5" fill-opacity="0" id="svg_3" fill="black"/>
  <line fill="none" stroke="white" stroke-width="5" stroke-dasharray="null" stroke-linejoin="null" stroke-linecap="null" fill-opacity="0" x1="513" y1="91" x2="513" y2="583" id="svg_20"/>
  <g id="HLF">
   <!-- home left forward -->
   <g id="L1">
    <path stroke="black" d="m409.61227,129.3382l-13.27408,17.43153l9.50507,7.31139l3.90207,-5.12421l0,30.29796l28.5614,0l0,-30.29468l3.8992,5.12093l9.50507,-7.31139l-13.27121,-17.43153l-0.13306,0.10197l0,-0.10197l-4.54422,0c-1.89032,4.41473 -5.54291,7.40677 -9.73645,7.40677c-4.19357,0 -7.84906,-2.99202 -9.73938,-7.40677l-4.54135,0l0,0.10197l-0.13306,-0.10197z" id="rect2160" stroke-dashoffset="0" stroke-miterlimit="3.5" stroke-linejoin="bevel" stroke-linecap="square" stroke-width="3" fill="#B22222"/>
    <path d="m409.96359,163.8949c-0.0303,-10.99817 -0.09058,-15.04507 -0.22485,-15.09595c-0.10092,-0.03822 -1.00418,1.01056 -2.00726,2.33064c-1.00305,1.3201 -1.88889,2.40015 -1.96857,2.40015c-0.07962,0 -2.14069,-1.53436 -4.58014,-3.4097l-4.43539,-3.40973l6.5065,-8.54852l6.50647,-8.54852l2.18463,0.00392l2.1846,0.00392l0.56638,1.1445c0.6908,1.39601 2.67667,3.68666 3.91458,4.51546c1.5524,1.03931 3.08905,1.5596 4.87726,1.65134c2.04675,0.10501 3.20975,-0.16718 5.10526,-1.19481c1.25555,-0.68071 1.74753,-1.0824 2.84769,-2.32515c0.73172,-0.82628 1.58255,-1.9991 1.89093,-2.60628l0.56076,-1.104l2.19278,-0.05101l2.19281,-0.05104l6.13089,8.05171c3.37204,4.42848 6.29657,8.27507 6.5,8.54802l0.36911,0.49632l-1.50177,1.17772c-0.82605,0.64778 -2.85495,2.2173 -4.50885,3.48787l-3.00708,2.31012l-1.84787,-2.45543c-1.04129,-1.38394 -1.95343,-2.43756 -2.09021,-2.41452c-0.21286,0.03589 -0.24765,1.87686 -0.28421,15.08011l-0.04126,15.03917l-13.99588,0l-13.99588,0l-0.04126,-15.02637l0,0.00003l0,0.00003l0,0l0,0.00002l0,0.00003l0,0l0,0l0,0l0,0l0,0l0,0l0,0l0,0l0,0l0,0l0,0l0,0l0,0l0,0l0,0l0,0l0,0l0,0l0,0l0,0l0,0l0,0l0,0l0,0l0,0l0,0l0,0l0,0l0,-0.00003l0,-0.00002l0,0l0,0l0,0l-0.00003,0l-0.00003,0l-0.00003,0l-0.00003,0l-0.00003,0z" id="path3153" stroke-dashoffset="0" stroke-dasharray="4, 4" stroke-miterlimit="4" stroke-width="4" fill-rule="evenodd" fill-opacity="0" fill="#ff69b4"/>
    <path d="m409.96359,163.8949c-0.0303,-10.99817 -0.09058,-15.04507 -0.22485,-15.09595c-0.10092,-0.03822 -1.00418,1.01056 -2.00726,2.33064c-1.00305,1.3201 -1.88889,2.40015 -1.96857,2.40015c-0.07962,0 -2.14069,-1.53436 -4.58014,-3.4097l-4.43539,-3.40973l6.5065,-8.54852l6.50647,-8.54852l2.18463,0.00392l2.1846,0.00392l0.56638,1.1445c0.6908,1.39601 2.67667,3.68666 3.91458,4.51546c1.5524,1.03931 3.08905,1.5596 4.87726,1.65134c2.04675,0.10501 3.20975,-0.16718 5.10526,-1.19481c1.25555,-0.68071 1.74753,-1.0824 2.84769,-2.32515c0.73172,-0.82628 1.58255,-1.9991 1.89093,-2.60628l0.56076,-1.104l2.19278,-0.05101l2.19281,-0.05104l6.13089,8.05171c3.37204,4.42848 6.29657,8.27507 6.5,8.54802l0.36911,0.49632l-1.50177,1.17772c-0.82605,0.64778 -2.85495,2.2173 -4.50885,3.48787l-3.00708,2.31012l-1.84787,-2.45543c-1.04129,-1.38394 -1.95343,-2.43756 -2.09021,-2.41452c-0.21286,0.03589 -0.24765,1.87686 -0.28421,15.08011l-0.04126,15.03917l-13.99588,0l-13.99588,0l-0.04126,-15.02637l0,0.00003l0,0.00003l0,0l0,0.00002l0,0.00003l0,0l0,0l0,0l0,0l0,0l0,0l0,0l0,0l0,0l0,0l0,0l0,0l0,0l0,0l0,0l0,0l0,0l0,0l0,0l0,0l0,0l0,0l0,0l0,0l0,0l0,0l0,0l0,0l0,-0.00003l0,-0.00002l0,0l0,0l0,0l-0.00003,0l-0.00003,0l-0.00003,0l-0.00003,0l-0.00003,0z" id="path3155" stroke-dashoffset="0" stroke-dasharray="4, 4" stroke-miterlimit="4" stroke-width="4" fill-rule="evenodd" fill-opacity="0" fill="#ff69b4"/>
   </g>
   <text stroke="#000000" transform="matrix(0.573447 0 0 0.556995 120.572 29.5935)" xml:space="preserve" text-anchor="middle" font-family="serif" font-size="24" id="svg_1" y="292.49633" x="529.14615" stroke-width="0" fill="#000000">C.Ronaldo</text>
  </g>
  <g id="HF">
   <g id="svg_24">
    <path id="svg_25" stroke="black" d="m410.58768,264.43152l-13.27408,17.43155l9.50507,7.31137l3.90207,-5.12421l0,30.29794l28.56137,0l0,-30.29465l3.89923,5.12091l9.50507,-7.31137l-13.27124,-17.43155l-0.13306,0.10199l0,-0.10199l-4.54419,0c-1.89032,4.41473 -5.54291,7.40677 -9.73645,7.40677c-4.19357,0 -7.84906,-2.99203 -9.73938,-7.40677l-4.54135,0l0,0.10199l-0.13306,-0.10199z" stroke-dashoffset="0" stroke-miterlimit="3.5" stroke-linejoin="bevel" stroke-linecap="square" stroke-width="3" fill="#B22222"/>
    <path id="svg_26" d="m410.939,298.98822c-0.0303,-10.99817 -0.09058,-15.04504 -0.22485,-15.09595c-0.10092,-0.03821 -1.00418,1.01056 -2.00726,2.33066c-1.00305,1.3201 -1.88889,2.40015 -1.96857,2.40015c-0.07962,0 -2.14069,-1.53436 -4.58014,-3.4097l-4.43539,-3.40973l6.5065,-8.54852l6.50647,-8.54852l2.18463,0.00391l2.1846,0.00391l0.56638,1.14453c0.6908,1.39606 2.67667,3.68674 3.91458,4.51544c1.5524,1.03931 3.08905,1.5596 4.87726,1.65134c2.04675,0.10501 3.20987,-0.16718 5.1055,-1.19464c1.25531,-0.68091 1.74765,-1.08255 2.84787,-2.32504c0.73172,-0.82629 1.58255,-1.99911 1.89093,-2.60629l0.56073,-1.10397l2.19281,-0.05103l2.19281,-0.05106l6.13089,8.05173c3.37204,4.42847 6.29657,8.27493 6.5,8.54791l0.36911,0.49643l-1.50177,1.17752c-0.82608,0.64798 -2.85495,2.21753 -4.50885,3.48779l-3.00708,2.31012l-1.84787,-2.45535c-1.04129,-1.38385 -1.95343,-2.4375 -2.09021,-2.41449c-0.21286,0.03595 -0.24765,1.87674 -0.28421,15.08017l-0.04126,15.039l-13.99588,0l-13.99588,0l-0.04126,-15.0264l0,0.00003l0,0.00003l0,0l0,0.00003l0,0l0,0l0,0l0,0l0,0l0,0l0,0l0,0l0,0l0,0l0,0l0,0l0,0l-0.00003,0l-0.00003,0l-0.00003,0l-0.00003,0l-0.00003,0l-0.00003,0l-0.00003,0l-0.00003,0l-0.00003,0l-0.00003,0l-0.00003,0l-0.00003,0l-0.00003,0l-0.00003,0l-0.00003,0l-0.00003,0l-0.00003,0l-0.00003,0l-0.00003,0z" stroke-dashoffset="0" stroke-dasharray="4, 4" stroke-miterlimit="4" stroke-width="4" fill-rule="evenodd" fill-opacity="0" fill="#ff69b4"/>
    <path id="svg_27" d="m410.939,298.98822c-0.0303,-10.99817 -0.09058,-15.04504 -0.22485,-15.09595c-0.10092,-0.03821 -1.00418,1.01056 -2.00726,2.33066c-1.00305,1.3201 -1.88889,2.40015 -1.96857,2.40015c-0.07962,0 -2.14069,-1.53436 -4.58014,-3.4097l-4.43539,-3.40973l6.5065,-8.54852l6.50647,-8.54852l2.18463,0.00391l2.1846,0.00391l0.56638,1.14453c0.6908,1.39606 2.67667,3.68674 3.91458,4.51544c1.5524,1.03931 3.08905,1.5596 4.87726,1.65134c2.04675,0.10501 3.20987,-0.16718 5.1055,-1.19464c1.25531,-0.68091 1.74765,-1.08255 2.84787,-2.32504c0.73172,-0.82629 1.58255,-1.99911 1.89093,-2.60629l0.56073,-1.10397l2.19281,-0.05103l2.19281,-0.05106l6.13089,8.05173c3.37204,4.42847 6.29657,8.27493 6.5,8.54791l0.36911,0.49643l-1.50177,1.17752c-0.82608,0.64798 -2.85495,2.21753 -4.50885,3.48779l-3.00708,2.31012l-1.84787,-2.45535c-1.04129,-1.38385 -1.95343,-2.4375 -2.09021,-2.41449c-0.21286,0.03595 -0.24765,1.87674 -0.28421,15.08017l-0.04126,15.039l-13.99588,0l-13.99588,0l-0.04126,-15.0264l0,0.00003l0,0.00003l0,0l0,0.00003l0,0l0,0l0,0l0,0l0,0l0,0l0,0l0,0l0,0l0,0l0,0l0,0l0,0l-0.00003,0l-0.00003,0l-0.00003,0l-0.00003,0l-0.00003,0l-0.00003,0l-0.00003,0l-0.00003,0l-0.00003,0l-0.00003,0l-0.00003,0l-0.00003,0l-0.00003,0l-0.00003,0l-0.00003,0l-0.00003,0l-0.00003,0l-0.00003,0l-0.00003,0z" stroke-dashoffset="0" stroke-dasharray="4, 4" stroke-miterlimit="4" stroke-width="4" fill-rule="evenodd" fill-opacity="0" fill="#ff69b4"/>
   </g>
   <text id="svg_28" stroke="#000000" transform="matrix(0.573447 0 0 0.556995 120.572 29.5935)" xml:space="preserve" text-anchor="middle" font-family="serif" font-size="24" y="535.03589" x="530.8471" stroke-width="0" fill="#000000">H.Postiga</text>
  </g>
  <g id="HRF">
   <g id="svg_35">
    <path stroke="black" d="m406.58768,390.43158l-13.27408,17.43155l9.50507,7.31137l3.90207,-5.12421l0,30.29794l28.56137,0l0,-30.29465l3.89923,5.12091l9.50507,-7.31137l-13.27124,-17.43155l-0.13306,0.10199l0,-0.10199l-4.54419,0c-1.89032,4.41473 -5.54291,7.40677 -9.73645,7.40677c-4.19357,0 -7.84906,-2.99203 -9.73938,-7.40677l-4.54135,0l0,0.10199l-0.13306,-0.10199z" stroke-dashoffset="0" stroke-miterlimit="3.5" stroke-linejoin="bevel" stroke-linecap="square" stroke-width="3" fill="#B22222" id="svg_36"/>
    <path d="m406.939,424.98828c-0.0303,-10.99817 -0.09058,-15.04504 -0.22485,-15.09595c-0.10092,-0.03821 -1.00418,1.01056 -2.00726,2.33063c-1.00305,1.32013 -1.88889,2.40018 -1.96857,2.40018c-0.07962,0 -2.14069,-1.53439 -4.58014,-3.4097l-4.43539,-3.40973l6.5065,-8.54855l6.50647,-8.54852l2.18463,0.00394l2.1846,0.00394l0.56638,1.1445c0.6908,1.396 2.67667,3.68668 3.91458,4.51544c1.5524,1.03931 3.08905,1.5596 4.87726,1.65134c2.04675,0.10501 3.20987,-0.16718 5.1055,-1.1947c1.25531,-0.68085 1.74765,-1.08252 2.84787,-2.32489c0.73172,-0.82608 1.58255,-1.99881 1.89093,-2.60614l0.56073,-1.10376l2.19281,-0.0513l2.19281,-0.0513l6.13089,8.05188c3.37204,4.42865 6.29657,8.27478 6.5,8.54776l0.36911,0.49646l-1.50177,1.17749c-0.82608,0.64798 -2.85495,2.21756 -4.50885,3.48785l-3.00708,2.31009l-1.84787,-2.45538c-1.04129,-1.38385 -1.95343,-2.4375 -2.09021,-2.41449c-0.21286,0.03595 -0.24765,1.8768 -0.28421,15.08017l-0.04126,15.03906l-13.99588,0l-13.99588,0l-0.04126,-15.0264l0,0.00003l0,0l0,0l0,0.00006l0,0l0,0l0,0l0,0l0,0l0,0l0,0l0,0l0,0l0,0l0,0l0,0l-0.00003,0l-0.00003,0l-0.00003,0l-0.00003,0l-0.00003,0l-0.00003,0l-0.00003,0l-0.00003,0l-0.00003,0l-0.00003,0l-0.00003,0l-0.00003,0l-0.00003,0l-0.00003,0l-0.00003,0l-0.00003,0l-0.00003,0l-0.00003,0l-0.00003,0z" stroke-dashoffset="0" stroke-dasharray="4, 4" stroke-miterlimit="4" stroke-width="4" fill-rule="evenodd" fill-opacity="0" fill="#ff69b4" id="svg_37"/>
    <path d="m406.939,424.98828c-0.0303,-10.99817 -0.09058,-15.04504 -0.22485,-15.09595c-0.10092,-0.03821 -1.00418,1.01056 -2.00726,2.33063c-1.00305,1.32013 -1.88889,2.40018 -1.96857,2.40018c-0.07962,0 -2.14069,-1.53439 -4.58014,-3.4097l-4.43539,-3.40973l6.5065,-8.54855l6.50647,-8.54852l2.18463,0.00394l2.1846,0.00394l0.56638,1.1445c0.6908,1.396 2.67667,3.68668 3.91458,4.51544c1.5524,1.03931 3.08905,1.5596 4.87726,1.65134c2.04675,0.10501 3.20987,-0.16718 5.1055,-1.1947c1.25531,-0.68085 1.74765,-1.08252 2.84787,-2.32489c0.73172,-0.82608 1.58255,-1.99881 1.89093,-2.60614l0.56073,-1.10376l2.19281,-0.0513l2.19281,-0.0513l6.13089,8.05188c3.37204,4.42865 6.29657,8.27478 6.5,8.54776l0.36911,0.49646l-1.50177,1.17749c-0.82608,0.64798 -2.85495,2.21756 -4.50885,3.48785l-3.00708,2.31009l-1.84787,-2.45538c-1.04129,-1.38385 -1.95343,-2.4375 -2.09021,-2.41449c-0.21286,0.03595 -0.24765,1.8768 -0.28421,15.08017l-0.04126,15.03906l-13.99588,0l-13.99588,0l-0.04126,-15.0264l0,0.00003l0,0l0,0l0,0.00006l0,0l0,0l0,0l0,0l0,0l0,0l0,0l0,0l0,0l0,0l0,0l0,0l-0.00003,0l-0.00003,0l-0.00003,0l-0.00003,0l-0.00003,0l-0.00003,0l-0.00003,0l-0.00003,0l-0.00003,0l-0.00003,0l-0.00003,0l-0.00003,0l-0.00003,0l-0.00003,0l-0.00003,0l-0.00003,0l-0.00003,0l-0.00003,0l-0.00003,0z" stroke-dashoffset="0" stroke-dasharray="4, 4" stroke-miterlimit="4" stroke-width="4" fill-rule="evenodd" fill-opacity="0" fill="#ff69b4" id="svg_38"/>
   </g>
   <text stroke="#000000" transform="matrix(0.573447 0 0 0.556995 120.572 29.5935)" xml:space="preserve" text-anchor="middle" font-family="serif" font-size="24" y="761.2499" x="523.87174" stroke-width="0" fill="#000000" id="svg_39">Nani</text>
  </g>
  <g id="HGK">
   <g id="svg_22">
    <path id="svg_23" stroke="black" d="m37.58768,288.43329l-13.27408,17.43158l9.50507,7.31134l3.90207,-5.12418l0,30.29794l28.56137,0l0,-30.29465l3.89924,5.12088l9.50507,-7.31134l-13.27124,-17.43158l-0.13306,0.10199l0,-0.10199l-4.54419,0c-1.89032,4.41473 -5.54291,7.4068 -9.73645,7.4068c-4.19357,0 -7.84906,-2.99207 -9.73938,-7.4068l-4.54135,0l0,0.10199l-0.13306,-0.10199l-0.00001,0z" stroke-dashoffset="0" stroke-miterlimit="3.5" stroke-linejoin="bevel" stroke-linecap="square" stroke-width="3" fill="#B22222"/>
    <path id="svg_29" d="m37.939,322.99002c-0.0303,-10.99817 -0.09058,-15.04504 -0.22485,-15.09598c-0.10092,-0.03821 -1.00418,1.01056 -2.00726,2.33063c-1.00305,1.32016 -1.88889,2.40021 -1.96857,2.40021c-0.07962,0 -2.14069,-1.53439 -4.58014,-3.40973l-4.43539,-3.40973l6.5065,-8.54852l6.50647,-8.54852l2.18463,0.00397l2.1846,0.00391l0.56638,1.14453c0.6908,1.396 2.67667,3.68668 3.91458,4.51544c1.5524,1.03931 3.08905,1.5596 4.87726,1.65134c2.04675,0.10501 3.20987,-0.16721 5.10541,-1.1947c1.25537,-0.68088 1.74756,-1.08252 2.84772,-2.32492c0.73163,-0.82629 1.58258,-1.99911 1.89081,-2.60629l0.56091,-1.10397l2.19263,-0.05103l2.19286,-0.05118l6.13098,8.05182c3.37189,4.4285 6.29639,8.27484 6.49976,8.54782l0.36902,0.49646l-1.50171,1.17749c-0.82594,0.64798 -2.85486,2.21756 -4.50861,3.48785l-3.00719,2.31006l-1.84784,-2.45535c-1.0412,-1.38385 -1.95337,-2.4375 -2.09021,-2.41449c-0.21295,0.03595 -0.24762,1.8768 -0.28418,15.08017l-0.04132,15.039l-13.99585,0l-13.99588,0l-0.04126,-15.02634l0,0l0,0l0,0l0,0.00009l0,0l0,0l0,0l0,0l0,0l0,0l-0.00003,0l-0.00003,0l-0.00003,0l-0.00003,0l-0.00003,0l0,0l-0.00003,0l-0.00003,0l-0.00003,0l-0.00002,0l-0.00001,-0.00003l0,0l0.00001,0z" stroke-dashoffset="0" stroke-dasharray="4, 4" stroke-miterlimit="4" stroke-width="4" fill-rule="evenodd" fill-opacity="0" fill="#ff69b4"/>
    <path id="svg_30" d="m37.939,322.99002c-0.0303,-10.99817 -0.09058,-15.04504 -0.22485,-15.09598c-0.10092,-0.03821 -1.00418,1.01056 -2.00726,2.33063c-1.00305,1.32016 -1.88889,2.40021 -1.96857,2.40021c-0.07962,0 -2.14069,-1.53439 -4.58014,-3.40973l-4.43539,-3.40973l6.5065,-8.54852l6.50647,-8.54852l2.18463,0.00397l2.1846,0.00391l0.56638,1.14453c0.6908,1.396 2.67667,3.68668 3.91458,4.51544c1.5524,1.03931 3.08905,1.5596 4.87726,1.65134c2.04675,0.10501 3.20987,-0.16721 5.10541,-1.1947c1.25537,-0.68088 1.74756,-1.08252 2.84772,-2.32492c0.73163,-0.82629 1.58258,-1.99911 1.89081,-2.60629l0.56091,-1.10397l2.19263,-0.05103l2.19286,-0.05118l6.13098,8.05182c3.37189,4.4285 6.29639,8.27484 6.49976,8.54782l0.36902,0.49646l-1.50171,1.17749c-0.82594,0.64798 -2.85486,2.21756 -4.50861,3.48785l-3.00719,2.31006l-1.84784,-2.45535c-1.0412,-1.38385 -1.95337,-2.4375 -2.09021,-2.41449c-0.21295,0.03595 -0.24762,1.8768 -0.28418,15.08017l-0.04132,15.039l-13.99585,0l-13.99588,0l-0.04126,-15.02634l0,0l0,0l0,0l0,0.00009l0,0l0,0l0,0l0,0l0,0l0,0l-0.00003,0l-0.00003,0l-0.00003,0l-0.00003,0l-0.00003,0l0,0l-0.00003,0l-0.00003,0l-0.00003,0l-0.00002,0l-0.00001,-0.00003l0,0l0.00001,0z" stroke-dashoffset="0" stroke-dasharray="4, 4" stroke-miterlimit="4" stroke-width="4" fill-rule="evenodd" fill-opacity="0" fill="#ff69b4"/>
   </g>
   <text id="svg_31" stroke="#000000" transform="matrix(0.573447 0 0 0.556995 120.572 29.5935)" xml:space="preserve" text-anchor="middle" font-family="serif" font-size="24" y="578.12746" x="-119.60535" stroke-width="0" fill="#000000">R.Patricio</text>
  </g>
  <g id="HRD">
   <g id="svg_32">
    <path stroke="black" d="m149.58768,436.43375l-13.27408,17.43155l9.50507,7.31137l3.90207,-5.12418l0,30.29794l28.56137,0l0,-30.29465l3.89923,5.12088l9.50508,-7.31137l-13.27124,-17.43155l-0.13307,0.10199l0,-0.10199l-4.54419,0c-1.89032,4.41473 -5.54291,7.4068 -9.73645,7.4068c-4.19356,0 -7.84906,-2.99207 -9.73935,-7.4068l-4.54138,0l0,0.10199l-0.13306,-0.10199z" stroke-dashoffset="0" stroke-miterlimit="3.5" stroke-linejoin="bevel" stroke-linecap="square" stroke-width="3" fill="#B22222" id="svg_33"/>
    <path d="m149.93901,470.99048c-0.0303,-10.9982 -0.09059,-15.04504 -0.22487,-15.09595c-0.10092,-0.03824 -1.00418,1.01056 -2.00726,2.3306c-1.00304,1.32013 -1.88887,2.40018 -1.96855,2.40018c-0.07962,0 -2.1407,-1.53436 -4.58015,-3.4097l-4.43535,-3.40973l6.50647,-8.54855l6.50647,-8.54849l2.18463,0.00391l2.1846,0.00394l0.56642,1.14453c0.6908,1.39618 2.67667,3.68686 3.91454,4.51544c1.55244,1.03934 3.08905,1.5596 4.8773,1.65137c2.04671,0.10498 3.20987,-0.16721 5.10538,-1.19458c1.25537,-0.681 1.74756,-1.08255 2.84773,-2.32489c0.73163,-0.82611 1.58258,-1.99893 1.89081,-2.60614l0.5609,-1.10391l2.19264,-0.05115l2.19287,-0.0509l6.13098,8.0517c3.37189,4.42844 6.29639,8.27502 6.49976,8.548l0.36903,0.49631l-1.50172,1.17773c-0.82593,0.6478 -2.85486,2.21729 -4.50861,3.48767l-3.0072,2.31012l-1.84784,-2.45523c-1.0412,-1.38394 -1.95337,-2.43756 -2.09021,-2.41452c-0.21295,0.03589 -0.24762,1.87683 -0.28418,15.08011l-0.04132,15.03906l-13.99582,0l-13.99585,0l-0.04126,-15.02652l0,0l0,0l0,0l0,0l0,0l0,0l0,0l0,0l0,0l0,0l-0.00003,0l-0.00003,0l-0.00003,0l-0.00003,0l-0.00003,0l0,0l-0.00003,0l-0.00003,0l-0.00002,0l-0.00003,0l-0.00003,0l-0.00003,0l-0.00002,0l0,0l0,0l0,0l0,0l0,0l0,0l0,0l0,-0.00003l0,-0.00003l0,-0.00003l0,-0.00003l0,-0.00003l0,-0.00003l0,-0.00003l0,-0.00003l0,-0.00003l0,-0.00003l0,-0.00003l0,-0.00003l0,-0.00003z" stroke-dashoffset="0" stroke-dasharray="4, 4" stroke-miterlimit="4" stroke-width="4" fill-rule="evenodd" fill-opacity="0" fill="#ff69b4" id="svg_34"/>
    <path d="m149.93901,470.99048c-0.0303,-10.9982 -0.09059,-15.04504 -0.22487,-15.09595c-0.10092,-0.03824 -1.00418,1.01056 -2.00726,2.3306c-1.00304,1.32013 -1.88887,2.40018 -1.96855,2.40018c-0.07962,0 -2.1407,-1.53436 -4.58015,-3.4097l-4.43535,-3.40973l6.50647,-8.54855l6.50647,-8.54849l2.18463,0.00391l2.1846,0.00394l0.56642,1.14453c0.6908,1.39618 2.67667,3.68686 3.91454,4.51544c1.55244,1.03934 3.08905,1.5596 4.8773,1.65137c2.04671,0.10498 3.20987,-0.16721 5.10538,-1.19458c1.25537,-0.681 1.74756,-1.08255 2.84773,-2.32489c0.73163,-0.82611 1.58258,-1.99893 1.89081,-2.60614l0.5609,-1.10391l2.19264,-0.05115l2.19287,-0.0509l6.13098,8.0517c3.37189,4.42844 6.29639,8.27502 6.49976,8.548l0.36903,0.49631l-1.50172,1.17773c-0.82593,0.6478 -2.85486,2.21729 -4.50861,3.48767l-3.0072,2.31012l-1.84784,-2.45523c-1.0412,-1.38394 -1.95337,-2.43756 -2.09021,-2.41452c-0.21295,0.03589 -0.24762,1.87683 -0.28418,15.08011l-0.04132,15.03906l-13.99582,0l-13.99585,0l-0.04126,-15.02652l0,0l0,0l0,0l0,0l0,0l0,0l0,0l0,0l0,0l0,0l-0.00003,0l-0.00003,0l-0.00003,0l-0.00003,0l-0.00003,0l0,0l-0.00003,0l-0.00003,0l-0.00002,0l-0.00003,0l-0.00003,0l-0.00003,0l-0.00002,0l0,0l0,0l0,0l0,0l0,0l0,0l0,0l0,-0.00003l0,-0.00003l0,-0.00003l0,-0.00003l0,-0.00003l0,-0.00003l0,-0.00003l0,-0.00003l0,-0.00003l0,-0.00003l0,-0.00003l0,-0.00003l0,-0.00003z" stroke-dashoffset="0" stroke-dasharray="4, 4" stroke-miterlimit="4" stroke-width="4" fill-rule="evenodd" fill-opacity="0" fill="#ff69b4" id="svg_40"/>
   </g>
   <text stroke="#000000" transform="matrix(0.573447 0 0 0.556995 120.572 29.5935)" xml:space="preserve" text-anchor="middle" font-family="serif" font-size="24" y="843.83982" x="75.70477" stroke-width="0" fill="#000000" id="svg_41">J.Pereira</text>
  </g>
  <g id="HRCD">
   <g id="svg_42">
    <path id="svg_43" fill="#B22222" stroke-width="3" stroke-linecap="square" stroke-linejoin="bevel" stroke-miterlimit="3.5" stroke-dashoffset="0" d="m145.58768,338.43375l-13.27408,17.43155l9.50507,7.31137l3.90207,-5.12418l0,30.29794l28.56137,0l0,-30.29465l3.89923,5.12088l9.50508,-7.31137l-13.27124,-17.43155l-0.13307,0.10199l0,-0.10199l-4.54419,0c-1.89032,4.41473 -5.54291,7.4068 -9.73645,7.4068c-4.19356,0 -7.84906,-2.99207 -9.73938,-7.4068l-4.54135,0l0,0.10199l-0.13306,-0.10199z" stroke="black"/>
    <path id="svg_44" fill="#ff69b4" fill-opacity="0" fill-rule="evenodd" stroke-width="4" stroke-miterlimit="4" stroke-dasharray="4, 4" stroke-dashoffset="0" d="m145.93901,372.99048c-0.0303,-10.9982 -0.09059,-15.04504 -0.22487,-15.09595c-0.10092,-0.03824 -1.00418,1.01056 -2.00726,2.3306c-1.00302,1.32013 -1.88887,2.40018 -1.96855,2.40018c-0.07962,0 -2.1407,-1.53436 -4.58015,-3.4097l-4.43538,-3.40973l6.5065,-8.54855l6.50647,-8.54849l2.18463,0.00391l2.1846,0.00394l0.56642,1.14453c0.6908,1.39618 2.67667,3.68686 3.91454,4.51544c1.55244,1.03934 3.08905,1.5596 4.8773,1.65137c2.04671,0.10498 3.20987,-0.16721 5.10538,-1.19458c1.25537,-0.681 1.74756,-1.08255 2.84773,-2.32489c0.73163,-0.82614 1.58258,-1.99896 1.89081,-2.60614l0.5609,-1.10394l2.19264,-0.05112l2.19287,-0.05093l6.13098,8.0517c3.37189,4.42844 6.29639,8.27502 6.49976,8.548l0.36903,0.49631l-1.50172,1.17773c-0.82593,0.6478 -2.85486,2.21729 -4.50861,3.4877l-3.0072,2.31012l-1.84784,-2.45526c-1.0412,-1.38394 -1.95337,-2.43756 -2.09021,-2.41452c-0.21295,0.03589 -0.24762,1.87683 -0.28418,15.08011l-0.04132,15.03909l-13.99582,0l-13.99585,0l-0.04126,-15.02652l0,0l0,0l0,0l0,0l0,0l0,0l0,0l0,0l0,0l0,0l-0.00006,0l-0.00003,0l-0.00003,0l-0.00002,0l-0.00003,0l0,0l-0.00003,0l-0.00003,0l-0.00003,0l-0.00003,0l-0.00002,0l-0.00002,0l-0.00003,0l0,0l0,0l0,0l0,0l0,0l0,0l0,-0.00003l0,-0.00003l0,-0.00003l0.00002,-0.00003l0,-0.00003l0,-0.00003l0,-0.00003l0,-0.00003l0,-0.00003l0,-0.00003l0,-0.00003l0,-0.00003l0,-0.00003z"/>
    <path id="svg_45" fill="#ff69b4" fill-opacity="0" fill-rule="evenodd" stroke-width="4" stroke-miterlimit="4" stroke-dasharray="4, 4" stroke-dashoffset="0" d="m145.93901,372.99048c-0.0303,-10.9982 -0.09059,-15.04504 -0.22487,-15.09595c-0.10092,-0.03824 -1.00418,1.01056 -2.00726,2.3306c-1.00302,1.32013 -1.88887,2.40018 -1.96855,2.40018c-0.07962,0 -2.1407,-1.53436 -4.58015,-3.4097l-4.43538,-3.40973l6.5065,-8.54855l6.50647,-8.54849l2.18463,0.00391l2.1846,0.00394l0.56642,1.14453c0.6908,1.39618 2.67667,3.68686 3.91454,4.51544c1.55244,1.03934 3.08905,1.5596 4.8773,1.65137c2.04671,0.10498 3.20987,-0.16721 5.10538,-1.19458c1.25537,-0.681 1.74756,-1.08255 2.84773,-2.32489c0.73163,-0.82614 1.58258,-1.99896 1.89081,-2.60614l0.5609,-1.10394l2.19264,-0.05112l2.19287,-0.05093l6.13098,8.0517c3.37189,4.42844 6.29639,8.27502 6.49976,8.548l0.36903,0.49631l-1.50172,1.17773c-0.82593,0.6478 -2.85486,2.21729 -4.50861,3.4877l-3.0072,2.31012l-1.84784,-2.45526c-1.0412,-1.38394 -1.95337,-2.43756 -2.09021,-2.41452c-0.21295,0.03589 -0.24762,1.87683 -0.28418,15.08011l-0.04132,15.03909l-13.99582,0l-13.99585,0l-0.04126,-15.02652l0,0l0,0l0,0l0,0l0,0l0,0l0,0l0,0l0,0l0,0l-0.00006,0l-0.00003,0l-0.00003,0l-0.00002,0l-0.00003,0l0,0l-0.00003,0l-0.00003,0l-0.00003,0l-0.00003,0l-0.00002,0l-0.00002,0l-0.00003,0l0,0l0,0l0,0l0,0l0,0l0,0l0,-0.00003l0,-0.00003l0,-0.00003l0.00002,-0.00003l0,-0.00003l0,-0.00003l0,-0.00003l0,-0.00003l0,-0.00003l0,-0.00003l0,-0.00003l0,-0.00003l0,-0.00003z"/>
   </g>
   <text id="svg_46" fill="#000000" stroke-width="0" x="68.72941" y="667.89569" font-size="24" font-family="serif" text-anchor="middle" xml:space="preserve" transform="matrix(0.573447 0 0 0.556995 120.572 29.5935)" stroke="#000000">Pepe</text>
  </g>
  <g id="HLCD">
   <g id="svg_47">
    <path stroke="black" d="m139.58768,222.43375l-13.27408,17.43155l9.50507,7.31137l3.90207,-5.12419l0,30.29796l28.56137,0l0,-30.29465l3.89923,5.12091l9.50508,-7.31137l-13.27124,-17.43155l-0.13307,0.10199l0,-0.10199l-4.54419,0c-1.89032,4.41472 -5.54291,7.40677 -9.73645,7.40677c-4.19356,0 -7.84906,-2.99205 -9.73938,-7.40677l-4.54135,0l0,0.10199l-0.13306,-0.10199l0,-0.00003z" stroke-dashoffset="0" stroke-miterlimit="3.5" stroke-linejoin="bevel" stroke-linecap="square" stroke-width="3" fill="#B22222" id="svg_48"/>
    <path d="m139.93901,256.99048c-0.0303,-10.9982 -0.09059,-15.04506 -0.22487,-15.09596c-0.10092,-0.03822 -1.00418,1.01056 -2.00726,2.33061c-1.00302,1.32014 -1.88887,2.40018 -1.96855,2.40018c-0.07962,0 -2.1407,-1.53436 -4.58015,-3.4097l-4.43536,-3.40973l6.50648,-8.54854l6.50647,-8.54851l2.18463,0.00392l2.1846,0.00394l0.56642,1.14452c0.6908,1.39598 2.67667,3.68669 3.91454,4.51544c1.55244,1.03929 3.08905,1.5596 4.8773,1.65134c2.04671,0.10501 3.20987,-0.16718 5.10538,-1.19478c1.25537,-0.68077 1.74756,-1.08244 2.84773,-2.32515c0.73163,-0.82629 1.58258,-1.9991 1.89081,-2.60629l0.5609,-1.10396l2.19264,-0.05104l2.19287,-0.05101l6.13098,8.05171c3.37189,4.42844 6.29639,8.27504 6.49976,8.54802l0.36903,0.49631l-1.50172,1.17772c-0.82593,0.64778 -2.85486,2.2173 -4.50861,3.48785l-3.0072,2.31009l-1.84784,-2.45538c-1.0412,-1.38393 -1.95337,-2.43758 -2.09021,-2.41452c-0.21295,0.0359 -0.24762,1.87683 -0.28418,15.08014l-0.04132,15.03909l-13.99582,0l-13.99585,0l-0.04126,-15.02637l0,0l0,0l0,0l0,0.00009l0,0l0,0l0,0l0,0l0,0l0,0l-0.00006,0l-0.00003,0l-0.00003,0l-0.00002,0l-0.00003,0l0,0l-0.00003,0l-0.00003,0l-0.00003,0l-0.00003,0l-0.00002,-0.00003l-0.00002,0l-0.00003,0l0.00002,0z" stroke-dashoffset="0" stroke-dasharray="4, 4" stroke-miterlimit="4" stroke-width="4" fill-rule="evenodd" fill-opacity="0" fill="#ff69b4" id="svg_49"/>
    <path d="m139.93901,256.99048c-0.0303,-10.9982 -0.09059,-15.04506 -0.22487,-15.09596c-0.10092,-0.03822 -1.00418,1.01056 -2.00726,2.33061c-1.00302,1.32014 -1.88887,2.40018 -1.96855,2.40018c-0.07962,0 -2.1407,-1.53436 -4.58015,-3.4097l-4.43536,-3.40973l6.50648,-8.54854l6.50647,-8.54851l2.18463,0.00392l2.1846,0.00394l0.56642,1.14452c0.6908,1.39598 2.67667,3.68669 3.91454,4.51544c1.55244,1.03929 3.08905,1.5596 4.8773,1.65134c2.04671,0.10501 3.20987,-0.16718 5.10538,-1.19478c1.25537,-0.68077 1.74756,-1.08244 2.84773,-2.32515c0.73163,-0.82629 1.58258,-1.9991 1.89081,-2.60629l0.5609,-1.10396l2.19264,-0.05104l2.19287,-0.05101l6.13098,8.05171c3.37189,4.42844 6.29639,8.27504 6.49976,8.54802l0.36903,0.49631l-1.50172,1.17772c-0.82593,0.64778 -2.85486,2.2173 -4.50861,3.48785l-3.0072,2.31009l-1.84784,-2.45538c-1.0412,-1.38393 -1.95337,-2.43758 -2.09021,-2.41452c-0.21295,0.0359 -0.24762,1.87683 -0.28418,15.08014l-0.04132,15.03909l-13.99582,0l-13.99585,0l-0.04126,-15.02637l0,0l0,0l0,0l0,0.00009l0,0l0,0l0,0l0,0l0,0l0,0l-0.00006,0l-0.00003,0l-0.00003,0l-0.00002,0l-0.00003,0l0,0l-0.00003,0l-0.00003,0l-0.00003,0l-0.00003,0l-0.00002,-0.00003l-0.00002,0l-0.00003,0l0.00002,0z" stroke-dashoffset="0" stroke-dasharray="4, 4" stroke-miterlimit="4" stroke-width="4" fill-rule="evenodd" fill-opacity="0" fill="#ff69b4" id="svg_50"/>
   </g>
  </g>
  <g id="HLD">
   <g id="svg_52">
    <path id="svg_53" fill="#B22222" stroke-width="3" stroke-linecap="square" stroke-linejoin="bevel" stroke-miterlimit="3.5" stroke-dashoffset="0" d="m135.58768,113.43375l-13.27408,17.43155l9.50507,7.31137l3.90207,-5.12419l0,30.29796l28.56137,0l0,-30.29465l3.89923,5.12091l9.50508,-7.31137l-13.27124,-17.43156l-0.13307,0.10199l0,-0.10199l-4.54419,0c-1.89032,4.41473 -5.54291,7.40678 -9.73645,7.40678c-4.19356,0 -7.84906,-2.99205 -9.73938,-7.40678l-4.54135,0l0,0.10199l-0.13306,-0.10199l0,-0.00002z" stroke="black"/>
    <path id="svg_54" fill="#ff69b4" fill-opacity="0" fill-rule="evenodd" stroke-width="4" stroke-miterlimit="4" stroke-dasharray="4, 4" stroke-dashoffset="0" d="m135.939,147.99048c-0.03029,-10.9982 -0.09058,-15.04506 -0.22484,-15.09595c-0.10092,-0.03824 -1.00418,1.01054 -2.00726,2.3306c-1.00304,1.32014 -1.8889,2.40018 -1.96857,2.40018c-0.07962,0 -2.1407,-1.53436 -4.58015,-3.4097l-4.43539,-3.40973l6.5065,-8.54854l6.50647,-8.54851l2.18463,0.00391l2.18459,0.00395l0.56641,1.14452c0.69081,1.39597 2.67668,3.68668 3.91457,4.51546c1.55241,1.03928 3.08905,1.55959 4.87727,1.65132c2.04672,0.10501 3.20987,-0.16718 5.10538,-1.19478c1.25537,-0.68077 1.74757,-1.08244 2.84773,-2.32516c0.73163,-0.82629 1.58258,-1.99911 1.89081,-2.60629l0.56091,-1.10396l2.19263,-0.05104l2.19287,-0.05101l6.13098,8.05171c3.37189,4.42844 6.29639,8.27502 6.49976,8.548l0.36903,0.49632l-1.50171,1.17773c-0.82594,0.64777 -2.85487,2.21729 -4.50862,3.48782l-3.0072,2.31009l-1.84784,-2.45537c-1.0412,-1.38394 -1.95337,-2.43759 -2.09021,-2.41452c-0.21295,0.03589 -0.24762,1.87682 -0.28418,15.08011l-0.04132,15.03911l-13.99582,0l-13.99588,0l-0.04126,-15.02637l0,0l0,0l0,0l0,0.00008l0,0l0,0l0,0l0,0l0,0l0,0l-0.00003,0l-0.00003,0l-0.00003,0l-0.00003,0l-0.00003,0l0,0l-0.00002,0l-0.00003,0l-0.00003,0l-0.00003,0l-0.00003,-0.00003l0,0l0,0.00003l0,0.00002z"/>
    <path id="svg_55" fill="#ff69b4" fill-opacity="0" fill-rule="evenodd" stroke-width="4" stroke-miterlimit="4" stroke-dasharray="4, 4" stroke-dashoffset="0" d="m135.939,147.99048c-0.03029,-10.9982 -0.09058,-15.04506 -0.22484,-15.09595c-0.10092,-0.03824 -1.00418,1.01054 -2.00726,2.3306c-1.00304,1.32014 -1.8889,2.40018 -1.96857,2.40018c-0.07962,0 -2.1407,-1.53436 -4.58015,-3.4097l-4.43539,-3.40973l6.5065,-8.54854l6.50647,-8.54851l2.18463,0.00391l2.18459,0.00395l0.56641,1.14452c0.69081,1.39597 2.67668,3.68668 3.91457,4.51546c1.55241,1.03928 3.08905,1.55959 4.87727,1.65132c2.04672,0.10501 3.20987,-0.16718 5.10538,-1.19478c1.25537,-0.68077 1.74757,-1.08244 2.84773,-2.32516c0.73163,-0.82629 1.58258,-1.99911 1.89081,-2.60629l0.56091,-1.10396l2.19263,-0.05104l2.19287,-0.05101l6.13098,8.05171c3.37189,4.42844 6.29639,8.27502 6.49976,8.548l0.36903,0.49632l-1.50171,1.17773c-0.82594,0.64777 -2.85487,2.21729 -4.50862,3.48782l-3.0072,2.31009l-1.84784,-2.45537c-1.0412,-1.38394 -1.95337,-2.43759 -2.09021,-2.41452c-0.21295,0.03589 -0.24762,1.87682 -0.28418,15.08011l-0.04132,15.03911l-13.99582,0l-13.99588,0l-0.04126,-15.02637l0,0l0,0l0,0l0,0.00008l0,0l0,0l0,0l0,0l0,0l0,0l-0.00003,0l-0.00003,0l-0.00003,0l-0.00003,0l-0.00003,0l0,0l-0.00002,0l-0.00003,0l-0.00003,0l-0.00003,0l-0.00003,-0.00003l0,0l0,0.00003l0,0.00002z"/>
   </g>
  </g>
  <g id="HDM">
   <g id="svg_57">
    <path stroke="black" d="m234.58768,281.43375l-13.27408,17.43155l9.50507,7.31137l3.90207,-5.12418l0,30.29794l28.56137,0l0,-30.29465l3.89923,5.12091l9.50507,-7.31137l-13.27115,-17.43155l-0.13306,0.10199l0,-0.10199l-4.54419,0c-1.89032,4.41473 -5.54292,7.40677 -9.73645,7.40677c-4.19357,0 -7.84906,-2.99203 -9.73938,-7.40677l-4.54135,0l0,0.10199l-0.13307,-0.10199l0,-0.00003l-0.00003,0l-0.00002,0l-0.00003,0z" stroke-dashoffset="0" stroke-miterlimit="3.5" stroke-linejoin="bevel" stroke-linecap="square" stroke-width="3" fill="#B22222" id="svg_58"/>
    <path d="m234.939,315.99048c-0.03029,-10.9982 -0.09058,-15.04504 -0.22484,-15.09595c-0.10092,-0.03824 -1.00418,1.01056 -2.00726,2.3306c-1.00304,1.32013 -1.8889,2.40018 -1.96857,2.40018c-0.07962,0 -2.1407,-1.53436 -4.58015,-3.4097l-4.43538,-3.40973l6.5065,-8.54855l6.50647,-8.54849l2.18463,0.00391l2.1846,0.00394l0.56641,1.14453c0.69084,1.39618 2.67671,3.68686 3.91458,4.51544c1.55241,1.03934 3.08905,1.5596 4.87727,1.65137c2.04671,0.10498 3.20987,-0.16721 5.10538,-1.19458c1.25537,-0.681 1.74756,-1.08255 2.84778,-2.32507c0.7316,-0.82629 1.58255,-1.99908 1.89081,-2.60629l0.56088,-1.10394l2.19266,-0.05106l2.1929,-0.05099l6.13098,8.0517c3.37189,4.42844 6.29639,8.27505 6.49985,8.548l0.36902,0.49631l-1.50171,1.17773c-0.82593,0.6478 -2.85486,2.21729 -4.50861,3.48785l-3.00726,2.31009l-1.84784,-2.45538c-1.0412,-1.38391 -1.95337,-2.43756 -2.09021,-2.41452c-0.21295,0.03592 -0.24762,1.87683 -0.28418,15.08014l-0.04132,15.03912l-13.99582,0l-13.99588,0l-0.04126,-15.0264l0,0l0,0l0,0l0,0.00009l0,0l0,0l0,0l0,0l0,0l0,0l-0.00002,0l-0.00003,0l-0.00003,0l-0.00003,0l-0.00003,0l0,0l-0.00003,0l-0.00003,0l-0.00003,0l-0.00003,0l-0.00003,0l-0.00002,-0.00003l-0.00003,0l-0.00003,0l-0.00003,0l-0.00003,0l0,-0.00003l0,-0.00003l0,-0.00003l0,-0.00003l0,-0.00003l0,-0.00003l0,-0.00003l0,-0.00003l0,-0.00003l0,-0.00003z" stroke-dashoffset="0" stroke-dasharray="4, 4" stroke-miterlimit="4" stroke-width="4" fill-rule="evenodd" fill-opacity="0" fill="#ff69b4" id="svg_59"/>
    <path d="m234.939,315.99048c-0.03029,-10.9982 -0.09058,-15.04504 -0.22484,-15.09595c-0.10092,-0.03824 -1.00418,1.01056 -2.00726,2.3306c-1.00304,1.32013 -1.8889,2.40018 -1.96857,2.40018c-0.07962,0 -2.1407,-1.53436 -4.58015,-3.4097l-4.43538,-3.40973l6.5065,-8.54855l6.50647,-8.54849l2.18463,0.00391l2.1846,0.00394l0.56641,1.14453c0.69084,1.39618 2.67671,3.68686 3.91458,4.51544c1.55241,1.03934 3.08905,1.5596 4.87727,1.65137c2.04671,0.10498 3.20987,-0.16721 5.10538,-1.19458c1.25537,-0.681 1.74756,-1.08255 2.84778,-2.32507c0.7316,-0.82629 1.58255,-1.99908 1.89081,-2.60629l0.56088,-1.10394l2.19266,-0.05106l2.1929,-0.05099l6.13098,8.0517c3.37189,4.42844 6.29639,8.27505 6.49985,8.548l0.36902,0.49631l-1.50171,1.17773c-0.82593,0.6478 -2.85486,2.21729 -4.50861,3.48785l-3.00726,2.31009l-1.84784,-2.45538c-1.0412,-1.38391 -1.95337,-2.43756 -2.09021,-2.41452c-0.21295,0.03592 -0.24762,1.87683 -0.28418,15.08014l-0.04132,15.03912l-13.99582,0l-13.99588,0l-0.04126,-15.0264l0,0l0,0l0,0l0,0.00009l0,0l0,0l0,0l0,0l0,0l0,0l-0.00002,0l-0.00003,0l-0.00003,0l-0.00003,0l-0.00003,0l0,0l-0.00003,0l-0.00003,0l-0.00003,0l-0.00003,0l-0.00003,0l-0.00002,-0.00003l-0.00003,0l-0.00003,0l-0.00003,0l-0.00003,0l0,-0.00003l0,-0.00003l0,-0.00003l0,-0.00003l0,-0.00003l0,-0.00003l0,-0.00003l0,-0.00003l0,-0.00003l0,-0.00003z" stroke-dashoffset="0" stroke-dasharray="4, 4" stroke-miterlimit="4" stroke-width="4" fill-rule="evenodd" fill-opacity="0" fill="#ff69b4" id="svg_60"/>
   </g>
   <text stroke="#000000" transform="matrix(0.573447 0 0 0.556995 120.572 29.5935)" xml:space="preserve" text-anchor="middle" font-family="serif" font-size="24" y="565.56083" x="223.9312" stroke-width="0" fill="#000000" id="svg_61">M.Veloso</text>
  </g>
  <g id="HLCM">
   <g id="svg_62">
    <path stroke="black" id="svg_63" fill="#B22222" stroke-width="3" stroke-linecap="square" stroke-linejoin="bevel" stroke-miterlimit="3.5" stroke-dashoffset="0" d="m285.58768,152.43375l-13.27408,17.43155l9.50507,7.31137l3.90207,-5.12419l0,30.29796l28.56137,0l0,-30.29465l3.89923,5.12091l9.50507,-7.31137l-13.27124,-17.43155l-0.13306,0.10199l0,-0.10199l-4.54419,0c-1.89032,4.41472 -5.54291,7.40677 -9.73645,7.40677c-4.19357,0 -7.84906,-2.99205 -9.73938,-7.40677l-4.54135,0l0,0.10199l-0.13306,-0.10199l0,-0.00003z"/>
    <path id="svg_64" fill="#ff69b4" fill-opacity="0" fill-rule="evenodd" stroke-width="4" stroke-miterlimit="4" stroke-dasharray="4, 4" stroke-dashoffset="0" d="m285.939,186.99048c-0.0303,-10.9982 -0.09058,-15.04506 -0.22485,-15.09596c-0.10092,-0.03822 -1.00418,1.01056 -2.00726,2.33061c-1.00305,1.32014 -1.88889,2.40018 -1.96857,2.40018c-0.07962,0 -2.14069,-1.53436 -4.58014,-3.4097l-4.43539,-3.40973l6.5065,-8.54854l6.50647,-8.54851l2.18463,0.00392l2.1846,0.00394l0.56641,1.14452c0.69095,1.39598 2.67673,3.68669 3.91455,4.51544c1.55243,1.03929 3.08905,1.5596 4.87729,1.65134c2.04672,0.10501 3.20987,-0.16718 5.10538,-1.19478c1.25537,-0.68077 1.74756,-1.08244 2.84778,-2.32515c0.7316,-0.82629 1.58255,-1.9991 1.89081,-2.60629l0.56091,-1.10396l2.19263,-0.05104l2.1929,-0.05101l6.13098,8.05171c3.37189,4.42844 6.29639,8.27504 6.49988,8.54802l0.36902,0.49631l-1.50171,1.17772c-0.82593,0.64778 -2.85486,2.2173 -4.50861,3.48785l-3.0072,2.31009l-1.84784,-2.45538c-1.0412,-1.38393 -1.95337,-2.43758 -2.09021,-2.41452c-0.21295,0.0359 -0.24762,1.87683 -0.28418,15.08012l-0.04132,15.03911l-13.99582,0l-13.99588,0l-0.04126,-15.02637l0,0l0,0l0,0l0,0.00008l0,0l0,0l0,0l0,0l0,0l0,0l-0.00003,0l-0.00003,0l-0.00003,0l-0.00003,0l-0.00003,0l0,0l-0.00003,0l-0.00003,0l-0.00003,0l-0.00003,0l-0.00003,-0.00002l-0.00003,0l-0.00003,0l-0.00003,0l-0.00003,0l-0.00003,0l-0.00003,0z"/>
    <path id="svg_65" fill="#ff69b4" fill-opacity="0" fill-rule="evenodd" stroke-width="4" stroke-miterlimit="4" stroke-dasharray="4, 4" stroke-dashoffset="0" d="m285.939,186.99048c-0.0303,-10.9982 -0.09058,-15.04506 -0.22485,-15.09596c-0.10092,-0.03822 -1.00418,1.01056 -2.00726,2.33061c-1.00305,1.32014 -1.88889,2.40018 -1.96857,2.40018c-0.07962,0 -2.14069,-1.53436 -4.58014,-3.4097l-4.43539,-3.40973l6.5065,-8.54854l6.50647,-8.54851l2.18463,0.00392l2.1846,0.00394l0.56641,1.14452c0.69095,1.39598 2.67673,3.68669 3.91455,4.51544c1.55243,1.03929 3.08905,1.5596 4.87729,1.65134c2.04672,0.10501 3.20987,-0.16718 5.10538,-1.19478c1.25537,-0.68077 1.74756,-1.08244 2.84778,-2.32515c0.7316,-0.82629 1.58255,-1.9991 1.89081,-2.60629l0.56091,-1.10396l2.19263,-0.05104l2.1929,-0.05101l6.13098,8.05171c3.37189,4.42844 6.29639,8.27504 6.49988,8.54802l0.36902,0.49631l-1.50171,1.17772c-0.82593,0.64778 -2.85486,2.2173 -4.50861,3.48785l-3.0072,2.31009l-1.84784,-2.45538c-1.0412,-1.38393 -1.95337,-2.43758 -2.09021,-2.41452c-0.21295,0.0359 -0.24762,1.87683 -0.28418,15.08012l-0.04132,15.03911l-13.99582,0l-13.99588,0l-0.04126,-15.02637l0,0l0,0l0,0l0,0.00008l0,0l0,0l0,0l0,0l0,0l0,0l-0.00003,0l-0.00003,0l-0.00003,0l-0.00003,0l-0.00003,0l0,0l-0.00003,0l-0.00003,0l-0.00003,0l-0.00003,0l-0.00003,-0.00002l-0.00003,0l-0.00003,0l-0.00003,0l-0.00003,0l-0.00003,0l-0.00003,0z"/>
   </g>
  </g>
  <g id="HRCM">
   <g id="svg_67">
    <path stroke="black" d="m300.58768,424.43375l-13.27408,17.43155l9.50507,7.31137l3.90207,-5.12418l0,30.29794l28.56137,0l0,-30.29465l3.89923,5.12088l9.50507,-7.31137l-13.27124,-17.43155l-0.13306,0.10199l0,-0.10199l-4.54419,0c-1.89032,4.41473 -5.54291,7.4068 -9.73645,7.4068c-4.19357,0 -7.84906,-2.99207 -9.73938,-7.4068l-4.54135,0l0,0.10199l-0.13306,-0.10199z" stroke-dashoffset="0" stroke-miterlimit="3.5" stroke-linejoin="bevel" stroke-linecap="square" stroke-width="3" fill="#B22222" id="svg_68"/>
    <path d="m300.939,458.99048c-0.0303,-10.9982 -0.09058,-15.04504 -0.22485,-15.09595c-0.10092,-0.03824 -1.00418,1.01056 -2.00726,2.3306c-1.00305,1.32013 -1.88889,2.40018 -1.96857,2.40018c-0.07962,0 -2.14069,-1.53436 -4.58014,-3.4097l-4.43539,-3.40973l6.5065,-8.54855l6.50647,-8.54849l2.18463,0.00391l2.1846,0.00394l0.56641,1.14453c0.69095,1.39618 2.67673,3.68686 3.91455,4.51544c1.55243,1.03934 3.08905,1.5596 4.87729,1.65137c2.04672,0.10498 3.20987,-0.16721 5.10538,-1.19458c1.25537,-0.681 1.74756,-1.08255 2.84778,-2.32489c0.7316,-0.82629 1.58255,-1.99911 1.89081,-2.60629l0.56091,-1.10394l2.19263,-0.05106l2.1929,-0.05099l6.13098,8.0517c3.37189,4.42844 6.29639,8.27502 6.49988,8.548l0.36902,0.49631l-1.50171,1.17773c-0.82593,0.6478 -2.85486,2.21729 -4.50861,3.48785l-3.0072,2.31009l-1.84784,-2.45538c-1.0412,-1.38394 -1.95337,-2.43756 -2.09021,-2.41452c-0.21295,0.03589 -0.24762,1.87683 -0.28418,15.08011l-0.04132,15.03912l-13.99582,0l-13.99588,0l-0.04126,-15.0264l0,0l0,0l0,0l0,0l0,0l0,0l0,0l0,0l0,0l0,0l-0.00003,0l-0.00003,0l-0.00003,0l-0.00003,0l-0.00003,0l0,0l-0.00003,0l-0.00003,0l-0.00003,0l-0.00003,0l-0.00003,0l-0.00003,0l-0.00003,0l-0.00003,0l-0.00003,-0.00003l-0.00003,-0.00003l-0.00003,-0.00003l0,-0.00003l0,-0.00003l0,-0.00003l0,-0.00003l0,-0.00003l0,-0.00003l0,-0.00003l0,-0.00003l0,-0.00003l0,-0.00003z" stroke-dashoffset="0" stroke-dasharray="4, 4" stroke-miterlimit="4" stroke-width="4" fill-rule="evenodd" fill-opacity="0" fill="#ff69b4" id="svg_69"/>
    <path d="m300.939,458.99048c-0.0303,-10.9982 -0.09058,-15.04504 -0.22485,-15.09595c-0.10092,-0.03824 -1.00418,1.01056 -2.00726,2.3306c-1.00305,1.32013 -1.88889,2.40018 -1.96857,2.40018c-0.07962,0 -2.14069,-1.53436 -4.58014,-3.4097l-4.43539,-3.40973l6.5065,-8.54855l6.50647,-8.54849l2.18463,0.00391l2.1846,0.00394l0.56641,1.14453c0.69095,1.39618 2.67673,3.68686 3.91455,4.51544c1.55243,1.03934 3.08905,1.5596 4.87729,1.65137c2.04672,0.10498 3.20987,-0.16721 5.10538,-1.19458c1.25537,-0.681 1.74756,-1.08255 2.84778,-2.32489c0.7316,-0.82629 1.58255,-1.99911 1.89081,-2.60629l0.56091,-1.10394l2.19263,-0.05106l2.1929,-0.05099l6.13098,8.0517c3.37189,4.42844 6.29639,8.27502 6.49988,8.548l0.36902,0.49631l-1.50171,1.17773c-0.82593,0.6478 -2.85486,2.21729 -4.50861,3.48785l-3.0072,2.31009l-1.84784,-2.45538c-1.0412,-1.38394 -1.95337,-2.43756 -2.09021,-2.41452c-0.21295,0.03589 -0.24762,1.87683 -0.28418,15.08011l-0.04132,15.03912l-13.99582,0l-13.99588,0l-0.04126,-15.0264l0,0l0,0l0,0l0,0l0,0l0,0l0,0l0,0l0,0l0,0l-0.00003,0l-0.00003,0l-0.00003,0l-0.00003,0l-0.00003,0l0,0l-0.00003,0l-0.00003,0l-0.00003,0l-0.00003,0l-0.00003,0l-0.00003,0l-0.00003,0l-0.00003,0l-0.00003,-0.00003l-0.00003,-0.00003l-0.00003,-0.00003l0,-0.00003l0,-0.00003l0,-0.00003l0,-0.00003l0,-0.00003l0,-0.00003l0,-0.00003l0,-0.00003l0,-0.00003l0,-0.00003z" stroke-dashoffset="0" stroke-dasharray="4, 4" stroke-miterlimit="4" stroke-width="4" fill-rule="evenodd" fill-opacity="0" fill="#ff69b4" id="svg_70"/>
   </g>
   <text stroke="#000000" transform="matrix(0.573447 0 0 0.556995 120.572 29.5935)" xml:space="preserve" text-anchor="middle" font-family="serif" font-size="24" y="822.29564" x="339.02467" stroke-width="0" fill="#000000" id="svg_71">R.Meireles</text>
  </g>
  <g id="svg_21">
   <g id="svg_72">
    <path stroke="black" d="m963.58765,299.43243l-13.27405,17.43152l9.50507,7.3114l3.90204,-5.12421l0,30.29794l28.5614,0l0,-30.29468l3.89923,5.12091l9.50507,-7.3114l-13.27124,-17.43152l-0.13306,0.10196l0,-0.10196l-4.54419,0c-1.89032,4.41458 -5.54291,7.40677 -9.73645,7.40677c-4.19354,0 -7.84906,-2.992 -9.73938,-7.40677l-4.54138,0l0,0.10196l-0.13306,-0.10196l0,0.00003z" stroke-dashoffset="0" stroke-miterlimit="3.5" stroke-linejoin="bevel" stroke-linecap="square" stroke-width="3" fill="#B22222" id="svg_73"/>
    <path d="m963.93903,333.98914c-0.03033,-10.99817 -0.09058,-15.04504 -0.22491,-15.09595c-0.10089,-0.03821 -1.00415,1.01056 -2.00726,2.33063c-1.00299,1.32013 -1.88885,2.40015 -1.96851,2.40015c-0.07965,0 -2.14069,-1.53433 -4.58014,-3.40967l-4.43542,-3.40973l6.50653,-8.54852l6.50641,-8.54852l2.18469,0.00391l2.18457,0.00409l0.56641,1.14444c0.6908,1.39615 2.67664,3.6868 3.91455,4.51535c1.55243,1.03949 3.08905,1.5596 4.87726,1.65152c2.04675,0.10495 3.2099,-0.16736 5.10553,-1.19476c1.25525,-0.68082 1.74762,-1.08243 2.84778,-2.32516c0.73169,-0.82629 1.58264,-1.99908 1.89099,-2.60626l0.56073,-1.104l2.19281,-0.05103l2.19275,-0.05103l6.13098,8.05167c3.37195,4.42847 6.29645,8.27499 6.49982,8.54803l0.36896,0.49634l-1.50171,1.1777c-0.82593,0.64777 -2.85486,2.21732 -4.50861,3.48776l-3.00714,2.31012l-1.84778,-2.45532c-1.04138,-1.38394 -1.95349,-2.43756 -2.09021,-2.41452c-0.21307,0.03589 -0.24774,1.87686 -0.2843,15.08008l-0.0412,15.03918l-13.99591,0l-13.99591,0l-0.04126,-15.02652l0,0l0,0l0,0l0,0.00003l0,0l0,0l0,0l0,0l0,0l0,0l0,0l-0.00006,0l0,0l-0.00006,0l0,0l0,0l-0.00006,0l0,0l-0.00006,0l-0.00006,0l0,0l0,0l-0.00006,0l0,0l-0.00006,0l0,0l-0.00006,0l0,0z" stroke-dashoffset="0" stroke-dasharray="4, 4" stroke-miterlimit="4" stroke-width="4" fill-rule="evenodd" fill-opacity="0" fill="#ff69b4" id="svg_74"/>
    <path d="m963.93903,333.98914c-0.03033,-10.99817 -0.09058,-15.04504 -0.22491,-15.09595c-0.10089,-0.03821 -1.00415,1.01056 -2.00726,2.33063c-1.00299,1.32013 -1.88885,2.40015 -1.96851,2.40015c-0.07965,0 -2.14069,-1.53433 -4.58014,-3.40967l-4.43542,-3.40973l6.50653,-8.54852l6.50641,-8.54852l2.18469,0.00391l2.18457,0.00409l0.56641,1.14444c0.6908,1.39615 2.67664,3.6868 3.91455,4.51535c1.55243,1.03949 3.08905,1.5596 4.87726,1.65152c2.04675,0.10495 3.2099,-0.16736 5.10553,-1.19476c1.25525,-0.68082 1.74762,-1.08243 2.84778,-2.32516c0.73169,-0.82629 1.58264,-1.99908 1.89099,-2.60626l0.56073,-1.104l2.19281,-0.05103l2.19275,-0.05103l6.13098,8.05167c3.37195,4.42847 6.29645,8.27499 6.49982,8.54803l0.36896,0.49634l-1.50171,1.1777c-0.82593,0.64777 -2.85486,2.21732 -4.50861,3.48776l-3.00714,2.31012l-1.84778,-2.45532c-1.04138,-1.38394 -1.95349,-2.43756 -2.09021,-2.41452c-0.21307,0.03589 -0.24774,1.87686 -0.2843,15.08008l-0.0412,15.03918l-13.99591,0l-13.99591,0l-0.04126,-15.02652l0,0l0,0l0,0l0,0.00003l0,0l0,0l0,0l0,0l0,0l0,0l0,0l-0.00006,0l0,0l-0.00006,0l0,0l0,0l-0.00006,0l0,0l-0.00006,0l-0.00006,0l0,0l0,0l-0.00006,0l0,0l-0.00006,0l0,0l-0.00006,0l0,0z" stroke-dashoffset="0" stroke-dasharray="4, 4" stroke-miterlimit="4" stroke-width="4" fill-rule="evenodd" fill-opacity="0" fill="#ff69b4" id="svg_75"/>
   </g>
  </g>
  <g id="svg_77">
   <g id="svg_78">
    <path stroke="black" d="m793.58765,126.54167l-13.27405,17.43153l9.50507,7.31139l3.90204,-5.12421l0,30.29793l28.5614,0l0,-30.29463l3.89923,5.12093l9.50507,-7.3114l-13.27124,-17.43153l-0.13306,0.10197l0,-0.10197l-4.54419,0c-1.89032,4.41476 -5.54291,7.40678 -9.73645,7.40678c-4.19354,0 -7.84906,-2.99202 -9.73938,-7.40678l-4.54138,0l0,0.10197l-0.13306,-0.10197l0,0l0,-0.00001z" stroke-dashoffset="0" stroke-miterlimit="3.5" stroke-linejoin="bevel" stroke-linecap="square" stroke-width="3" fill="#B22222" id="svg_79"/>
    <path d="m793.93903,161.09839c-0.03033,-10.99817 -0.09058,-15.04506 -0.22491,-15.09595c-0.10089,-0.03822 -1.00415,1.01056 -2.00726,2.33063c-1.00299,1.32013 -1.88885,2.40016 -1.96851,2.40016c-0.07965,0 -2.14069,-1.53436 -4.58014,-3.40971l-4.43542,-3.40971l6.50653,-8.54854l6.50641,-8.54852l2.18469,0.00392l2.18457,0.00392l0.56641,1.1445c0.6908,1.396 2.67664,3.68665 3.91455,4.51545c1.55243,1.03929 3.08905,1.5596 4.87726,1.65132c2.04675,0.10501 3.2099,-0.16719 5.10553,-1.19481c1.25525,-0.68074 1.74762,-1.08243 2.84778,-2.32515c0.73169,-0.82628 1.58264,-1.99911 1.89099,-2.60629l0.56073,-1.104l2.19281,-0.05101l2.19275,-0.05103l6.13098,8.05167c3.37195,4.42845 6.29645,8.27507 6.49982,8.54803l0.36896,0.49632l-1.50171,1.17772c-0.82593,0.64777 -2.85486,2.2173 -4.50861,3.48787l-3.00714,2.31012l-1.84778,-2.45543c-1.04138,-1.38394 -1.95349,-2.43756 -2.09021,-2.41452c-0.21307,0.03589 -0.24774,1.87685 -0.2843,15.08011l-0.0412,15.03917l-13.99591,0l-13.99591,0l-0.04126,-15.02643l0,0.00003l0,0l0,0l0,0.00008l0,0l0,0l0,0l0,0l0,0l0,0l0,0l-0.00006,0l0,0l-0.00006,0l0,0l0,0l-0.00006,0l0,0l-0.00006,0l-0.00006,0l0,0l0,0l-0.00006,0l0,0l-0.00006,0l0,0l-0.00006,0l0,0l0,0.00003l0,0.00002l0,0.00002l0,0.00003l0,-0.00002z" stroke-dashoffset="0" stroke-dasharray="4, 4" stroke-miterlimit="4" stroke-width="4" fill-rule="evenodd" fill-opacity="0" fill="#ff69b4" id="svg_80"/>
    <path d="m793.93903,161.09839c-0.03033,-10.99817 -0.09058,-15.04506 -0.22491,-15.09595c-0.10089,-0.03822 -1.00415,1.01056 -2.00726,2.33063c-1.00299,1.32013 -1.88885,2.40016 -1.96851,2.40016c-0.07965,0 -2.14069,-1.53436 -4.58014,-3.40971l-4.43542,-3.40971l6.50653,-8.54854l6.50641,-8.54852l2.18469,0.00392l2.18457,0.00392l0.56641,1.1445c0.6908,1.396 2.67664,3.68665 3.91455,4.51545c1.55243,1.03929 3.08905,1.5596 4.87726,1.65132c2.04675,0.10501 3.2099,-0.16719 5.10553,-1.19481c1.25525,-0.68074 1.74762,-1.08243 2.84778,-2.32515c0.73169,-0.82628 1.58264,-1.99911 1.89099,-2.60629l0.56073,-1.104l2.19281,-0.05101l2.19275,-0.05103l6.13098,8.05167c3.37195,4.42845 6.29645,8.27507 6.49982,8.54803l0.36896,0.49632l-1.50171,1.17772c-0.82593,0.64777 -2.85486,2.2173 -4.50861,3.48787l-3.00714,2.31012l-1.84778,-2.45543c-1.04138,-1.38394 -1.95349,-2.43756 -2.09021,-2.41452c-0.21307,0.03589 -0.24774,1.87685 -0.2843,15.08011l-0.0412,15.03917l-13.99591,0l-13.99591,0l-0.04126,-15.02643l0,0.00003l0,0l0,0l0,0.00008l0,0l0,0l0,0l0,0l0,0l0,0l0,0l-0.00006,0l0,0l-0.00006,0l0,0l0,0l-0.00006,0l0,0l-0.00006,0l-0.00006,0l0,0l0,0l-0.00006,0l0,0l-0.00006,0l0,0l-0.00006,0l0,0l0,0.00003l0,0.00002l0,0.00002l0,0.00003l0,-0.00002z" stroke-dashoffset="0" stroke-dasharray="4, 4" stroke-miterlimit="4" stroke-width="4" fill-rule="evenodd" fill-opacity="0" fill="#ff69b4" id="svg_81"/>
   </g>
  </g>
  <g id="svg_82">
   <g id="svg_83">
    <path stroke="black" d="m854.58765,228.54167l-13.27405,17.43155l9.50507,7.31137l3.90204,-5.12419l0,30.29791l28.5614,0l0,-30.29463l3.89923,5.12091l9.50507,-7.31137l-13.27124,-17.43155l-0.13306,0.10197l0,-0.10197l-4.54419,0c-1.89032,4.41473 -5.54291,7.40677 -9.73645,7.40677c-4.19354,0 -7.84906,-2.99203 -9.73938,-7.40677l-4.54138,0l0,0.10197l-0.13306,-0.10197z" stroke-dashoffset="0" stroke-miterlimit="3.5" stroke-linejoin="bevel" stroke-linecap="square" stroke-width="3" fill="#B22222" id="svg_84"/>
    <path d="m854.93903,263.09839c-0.03033,-10.9982 -0.09058,-15.04507 -0.22491,-15.09595c-0.10089,-0.03824 -1.00415,1.01056 -2.00726,2.33063c-1.00299,1.3201 -1.88885,2.40016 -1.96851,2.40016c-0.07965,0 -2.14069,-1.53438 -4.58014,-3.40971l-4.43542,-3.40973l6.50653,-8.54852l6.50641,-8.54851l2.18469,0.00391l2.18457,0.00392l0.56641,1.1445c0.6908,1.39601 2.67664,3.68666 3.91455,4.51547c1.55243,1.03929 3.08905,1.55959 4.87726,1.65132c2.04675,0.105 3.2099,-0.16719 5.10553,-1.19482c1.25525,-0.68073 1.74762,-1.08241 2.84778,-2.32515c0.73169,-0.82628 1.58264,-1.9991 1.89099,-2.60629l0.56073,-1.10399l2.19281,-0.05101l2.19275,-0.05104l6.13098,8.05171c3.37195,4.42845 6.29645,8.27507 6.49982,8.54805l0.36896,0.49629l-1.50171,1.17772c-0.82593,0.64777 -2.85486,2.2173 -4.50861,3.48787l-3.00714,2.31012l-1.84778,-2.45543c-1.04138,-1.38394 -1.95349,-2.43756 -2.09021,-2.41452c-0.21307,0.0359 -0.24774,1.87686 -0.2843,15.08012l-0.0412,15.03918l-13.99591,0l-13.99591,0l-0.04126,-15.02643l0,0.00003l0,0l0,0l0,0.00009l0,0l0,0l0,0l0,0l0,0l0,0l0,0l-0.00006,0l0,0l-0.00006,0l0,0l0,0l-0.00006,0l0,0l-0.00006,0l-0.00006,0l0,0l0,0l-0.00006,0l0,0l-0.00006,0l0,0l-0.00006,0l0,0l0,0z" stroke-dashoffset="0" stroke-dasharray="4, 4" stroke-miterlimit="4" stroke-width="4" fill-rule="evenodd" fill-opacity="0" fill="#ff69b4" id="svg_85"/>
    <path d="m854.93903,263.09839c-0.03033,-10.9982 -0.09058,-15.04507 -0.22491,-15.09595c-0.10089,-0.03824 -1.00415,1.01056 -2.00726,2.33063c-1.00299,1.3201 -1.88885,2.40016 -1.96851,2.40016c-0.07965,0 -2.14069,-1.53438 -4.58014,-3.40971l-4.43542,-3.40973l6.50653,-8.54852l6.50641,-8.54851l2.18469,0.00391l2.18457,0.00392l0.56641,1.1445c0.6908,1.39601 2.67664,3.68666 3.91455,4.51547c1.55243,1.03929 3.08905,1.55959 4.87726,1.65132c2.04675,0.105 3.2099,-0.16719 5.10553,-1.19482c1.25525,-0.68073 1.74762,-1.08241 2.84778,-2.32515c0.73169,-0.82628 1.58264,-1.9991 1.89099,-2.60629l0.56073,-1.10399l2.19281,-0.05101l2.19275,-0.05104l6.13098,8.05171c3.37195,4.42845 6.29645,8.27507 6.49982,8.54805l0.36896,0.49629l-1.50171,1.17772c-0.82593,0.64777 -2.85486,2.2173 -4.50861,3.48787l-3.00714,2.31012l-1.84778,-2.45543c-1.04138,-1.38394 -1.95349,-2.43756 -2.09021,-2.41452c-0.21307,0.0359 -0.24774,1.87686 -0.2843,15.08012l-0.0412,15.03918l-13.99591,0l-13.99591,0l-0.04126,-15.02643l0,0.00003l0,0l0,0l0,0.00009l0,0l0,0l0,0l0,0l0,0l0,0l0,0l-0.00006,0l0,0l-0.00006,0l0,0l0,0l-0.00006,0l0,0l-0.00006,0l-0.00006,0l0,0l0,0l-0.00006,0l0,0l-0.00006,0l0,0l-0.00006,0l0,0l0,0z" stroke-dashoffset="0" stroke-dasharray="4, 4" stroke-miterlimit="4" stroke-width="4" fill-rule="evenodd" fill-opacity="0" fill="#ff69b4" id="svg_86"/>
   </g>
  </g>
  <g id="svg_87">
   <g id="svg_88">
    <path stroke="black" d="m851.58765,344.54169l-13.27405,17.43152l9.50507,7.3114l3.90204,-5.12421l0,30.29791l28.5614,0l0,-30.29462l3.89923,5.12091l9.50507,-7.3114l-13.27124,-17.43152l-0.13306,0.10196l0,-0.10196l-4.54419,0c-1.89032,4.41473 -5.54291,7.40677 -9.73645,7.40677c-4.19354,0 -7.84906,-2.99203 -9.73938,-7.40677l-4.54138,0l0,0.10196l-0.13306,-0.10196z" stroke-dashoffset="0" stroke-miterlimit="3.5" stroke-linejoin="bevel" stroke-linecap="square" stroke-width="3" fill="#B22222" id="svg_89"/>
    <path d="m851.93903,379.09839c-0.03033,-10.9982 -0.09058,-15.04507 -0.22491,-15.09595c-0.10089,-0.03824 -1.00415,1.01056 -2.00726,2.33063c-1.00299,1.3201 -1.88885,2.40015 -1.96851,2.40015c-0.07965,0 -2.14069,-1.53436 -4.58014,-3.4097l-4.43542,-3.40973l6.50653,-8.54852l6.50641,-8.54852l2.18469,0.00394l2.18457,0.00391l0.56641,1.1445c0.6908,1.39618 2.67664,3.68686 3.91455,4.51547c1.55243,1.03931 3.08905,1.5596 4.87726,1.65134c2.04675,0.10498 3.2099,-0.16721 5.10553,-1.19455c1.25525,-0.681 1.74762,-1.08255 2.84778,-2.32498c0.73169,-0.82629 1.58264,-1.99911 1.89099,-2.60629l0.56073,-1.104l2.19281,-0.05099l2.19275,-0.05103l6.13098,8.05167c3.37195,4.42847 6.29645,8.27509 6.49982,8.54807l0.36896,0.49631l-1.50171,1.1777c-0.82593,0.64777 -2.85486,2.21732 -4.50861,3.48788l-3.00714,2.31012l-1.84778,-2.45544c-1.04138,-1.38394 -1.95349,-2.43756 -2.09021,-2.41452c-0.21307,0.03592 -0.24774,1.87686 -0.2843,15.08014l-0.0412,15.03918l-13.99591,0l-13.99591,0l-0.04126,-15.02643l0,0.00003l0,0l0,0l0,0.00009l0,0l0,0l0,0l0,0l0,0l0,0l0,0l-0.00006,0l0,0l-0.00006,0l0,0l0,0l-0.00006,0l0,0l-0.00006,0l-0.00006,0l0,0l0,0l-0.00006,0l0,0l-0.00006,0l0,0l-0.00006,0l0,0l0,-0.00003l0,-0.00003l0,-0.00003l0,-0.00003l0,-0.00003l0,-0.00003l0,-0.00003l0,-0.00003l0,-0.00003l0,-0.00003l0,-0.00003l0,-0.00003l0,-0.00003l0,-0.00003l0,-0.00003z" stroke-dashoffset="0" stroke-dasharray="4, 4" stroke-miterlimit="4" stroke-width="4" fill-rule="evenodd" fill-opacity="0" fill="#ff69b4" id="svg_90"/>
    <path d="m851.93903,379.09839c-0.03033,-10.9982 -0.09058,-15.04507 -0.22491,-15.09595c-0.10089,-0.03824 -1.00415,1.01056 -2.00726,2.33063c-1.00299,1.3201 -1.88885,2.40015 -1.96851,2.40015c-0.07965,0 -2.14069,-1.53436 -4.58014,-3.4097l-4.43542,-3.40973l6.50653,-8.54852l6.50641,-8.54852l2.18469,0.00394l2.18457,0.00391l0.56641,1.1445c0.6908,1.39618 2.67664,3.68686 3.91455,4.51547c1.55243,1.03931 3.08905,1.5596 4.87726,1.65134c2.04675,0.10498 3.2099,-0.16721 5.10553,-1.19455c1.25525,-0.681 1.74762,-1.08255 2.84778,-2.32498c0.73169,-0.82629 1.58264,-1.99911 1.89099,-2.60629l0.56073,-1.104l2.19281,-0.05099l2.19275,-0.05103l6.13098,8.05167c3.37195,4.42847 6.29645,8.27509 6.49982,8.54807l0.36896,0.49631l-1.50171,1.1777c-0.82593,0.64777 -2.85486,2.21732 -4.50861,3.48788l-3.00714,2.31012l-1.84778,-2.45544c-1.04138,-1.38394 -1.95349,-2.43756 -2.09021,-2.41452c-0.21307,0.03592 -0.24774,1.87686 -0.2843,15.08014l-0.0412,15.03918l-13.99591,0l-13.99591,0l-0.04126,-15.02643l0,0.00003l0,0l0,0l0,0.00009l0,0l0,0l0,0l0,0l0,0l0,0l0,0l-0.00006,0l0,0l-0.00006,0l0,0l0,0l-0.00006,0l0,0l-0.00006,0l-0.00006,0l0,0l0,0l-0.00006,0l0,0l-0.00006,0l0,0l-0.00006,0l0,0l0,-0.00003l0,-0.00003l0,-0.00003l0,-0.00003l0,-0.00003l0,-0.00003l0,-0.00003l0,-0.00003l0,-0.00003l0,-0.00003l0,-0.00003l0,-0.00003l0,-0.00003l0,-0.00003l0,-0.00003z" stroke-dashoffset="0" stroke-dasharray="4, 4" stroke-miterlimit="4" stroke-width="4" fill-rule="evenodd" fill-opacity="0" fill="#ff69b4" id="svg_91"/>
   </g>
  </g>
  <g id="svg_92">
   <g id="svg_93">
    <path stroke="black" d="m822.58765,444.54169l-13.27405,17.43152l9.50507,7.3114l3.90204,-5.12421l0,30.29791l28.5614,0l0,-30.29462l3.89923,5.12091l9.50507,-7.3114l-13.27124,-17.43152l-0.13306,0.10196l0,-0.10196l-4.54419,0c-1.89032,4.41473 -5.54291,7.40677 -9.73645,7.40677c-4.19354,0 -7.84906,-2.99203 -9.73938,-7.40677l-4.54138,0l0,0.10196l-0.13306,-0.10196z" stroke-dashoffset="0" stroke-miterlimit="3.5" stroke-linejoin="bevel" stroke-linecap="square" stroke-width="3" fill="#B22222" id="svg_94"/>
    <path d="m822.93903,479.09839c-0.03033,-10.9982 -0.09058,-15.04507 -0.22491,-15.09595c-0.10089,-0.03824 -1.00415,1.01056 -2.00726,2.33063c-1.00299,1.3201 -1.88885,2.40015 -1.96851,2.40015c-0.07965,0 -2.14069,-1.53436 -4.58014,-3.4097l-4.43542,-3.40973l6.50653,-8.54852l6.50641,-8.54852l2.18469,0.00394l2.18457,0.00391l0.56641,1.1445c0.6908,1.39618 2.67664,3.68686 3.91455,4.51547c1.55243,1.03931 3.08905,1.5596 4.87726,1.65134c2.04675,0.10498 3.2099,-0.16721 5.10553,-1.19455c1.25525,-0.681 1.74762,-1.08255 2.84778,-2.32498c0.73169,-0.82629 1.58264,-1.99911 1.89099,-2.60629l0.56073,-1.104l2.19281,-0.05099l2.19275,-0.05103l6.13098,8.05167c3.37195,4.42847 6.29645,8.27509 6.49982,8.54807l0.36896,0.49631l-1.50171,1.1777c-0.82593,0.64777 -2.85486,2.21732 -4.50861,3.48788l-3.00714,2.31012l-1.84778,-2.45544c-1.04138,-1.38394 -1.95349,-2.43756 -2.09021,-2.41452c-0.21307,0.03592 -0.24774,1.87686 -0.2843,15.08014l-0.0412,15.03918l-13.99591,0l-13.99591,0l-0.04126,-15.02643l0,0.00003l0,0l0,0l0,0.00009l0,0l0,0l0,0l0,0l0,0l0,0l0,0l-0.00006,0l0,0l-0.00006,0l0,0l0,0l-0.00006,0l0,0l-0.00006,0l-0.00006,0l0,0l0,0l-0.00006,0l0,0l-0.00006,0l0,0l-0.00006,0l0,0l0,-0.00003l0,-0.00003l0,-0.00003l0,-0.00003l0,-0.00003l0,-0.00003l0,-0.00003l0,-0.00003l0,-0.00003l0,-0.00003l0,-0.00003l0,-0.00003l0,-0.00003l0,-0.00003l0,-0.00003z" stroke-dashoffset="0" stroke-dasharray="4, 4" stroke-miterlimit="4" stroke-width="4" fill-rule="evenodd" fill-opacity="0" fill="#ff69b4" id="svg_95"/>
    <path d="m822.93903,479.09839c-0.03033,-10.9982 -0.09058,-15.04507 -0.22491,-15.09595c-0.10089,-0.03824 -1.00415,1.01056 -2.00726,2.33063c-1.00299,1.3201 -1.88885,2.40015 -1.96851,2.40015c-0.07965,0 -2.14069,-1.53436 -4.58014,-3.4097l-4.43542,-3.40973l6.50653,-8.54852l6.50641,-8.54852l2.18469,0.00394l2.18457,0.00391l0.56641,1.1445c0.6908,1.39618 2.67664,3.68686 3.91455,4.51547c1.55243,1.03931 3.08905,1.5596 4.87726,1.65134c2.04675,0.10498 3.2099,-0.16721 5.10553,-1.19455c1.25525,-0.681 1.74762,-1.08255 2.84778,-2.32498c0.73169,-0.82629 1.58264,-1.99911 1.89099,-2.60629l0.56073,-1.104l2.19281,-0.05099l2.19275,-0.05103l6.13098,8.05167c3.37195,4.42847 6.29645,8.27509 6.49982,8.54807l0.36896,0.49631l-1.50171,1.1777c-0.82593,0.64777 -2.85486,2.21732 -4.50861,3.48788l-3.00714,2.31012l-1.84778,-2.45544c-1.04138,-1.38394 -1.95349,-2.43756 -2.09021,-2.41452c-0.21307,0.03592 -0.24774,1.87686 -0.2843,15.08014l-0.0412,15.03918l-13.99591,0l-13.99591,0l-0.04126,-15.02643l0,0.00003l0,0l0,0l0,0.00009l0,0l0,0l0,0l0,0l0,0l0,0l0,0l-0.00006,0l0,0l-0.00006,0l0,0l0,0l-0.00006,0l0,0l-0.00006,0l-0.00006,0l0,0l0,0l-0.00006,0l0,0l-0.00006,0l0,0l-0.00006,0l0,0l0,-0.00003l0,-0.00003l0,-0.00003l0,-0.00003l0,-0.00003l0,-0.00003l0,-0.00003l0,-0.00003l0,-0.00003l0,-0.00003l0,-0.00003l0,-0.00003l0,-0.00003l0,-0.00003l0,-0.00003z" stroke-dashoffset="0" stroke-dasharray="4, 4" stroke-miterlimit="4" stroke-width="4" fill-rule="evenodd" fill-opacity="0" fill="#ff69b4" id="svg_96"/>
   </g>
  </g>
  <g id="svg_97">
   <g id="svg_98">
    <path stroke="black" d="m723.58765,345.54169l-13.27405,17.43152l9.50507,7.3114l3.90204,-5.12421l0,30.29791l28.5614,0l0,-30.29462l3.89923,5.12091l9.50507,-7.3114l-13.27124,-17.43152l-0.13306,0.10196l0,-0.10196l-4.54419,0c-1.89032,4.41473 -5.54291,7.40677 -9.73645,7.40677c-4.19354,0 -7.84906,-2.99203 -9.73938,-7.40677l-4.54138,0l0,0.10196l-0.13306,-0.10196z" stroke-dashoffset="0" stroke-miterlimit="3.5" stroke-linejoin="bevel" stroke-linecap="square" stroke-width="3" fill="#B22222" id="svg_99"/>
    <path d="m723.93903,380.09839c-0.03033,-10.9982 -0.09058,-15.04507 -0.22491,-15.09595c-0.10089,-0.03824 -1.00415,1.01056 -2.00726,2.33063c-1.00299,1.3201 -1.88885,2.40015 -1.96851,2.40015c-0.07965,0 -2.14069,-1.53436 -4.58014,-3.4097l-4.43542,-3.40973l6.50653,-8.54852l6.50641,-8.54852l2.18469,0.00394l2.18457,0.00391l0.56641,1.1445c0.6908,1.39618 2.67664,3.68686 3.91455,4.51547c1.55243,1.03931 3.08905,1.5596 4.87726,1.65134c2.04675,0.10498 3.2099,-0.16721 5.10553,-1.19458c1.25525,-0.68097 1.74762,-1.08252 2.84778,-2.32516c0.73169,-0.82629 1.58264,-1.99908 1.89099,-2.60629l0.56073,-1.10397l2.19281,-0.05103l2.19275,-0.05103l6.13098,8.0517c3.37195,4.42847 6.29645,8.27505 6.49982,8.54803l0.36896,0.49631l-1.50171,1.17767c-0.82593,0.6478 -2.85486,2.21735 -4.50861,3.48767l-3.00714,2.31012l-1.84778,-2.45523c-1.04138,-1.38391 -1.95349,-2.43753 -2.09021,-2.41449c-0.21307,0.03592 -0.24774,1.87674 -0.2843,15.08014l-0.0412,15.03894l-13.99591,0l-13.99591,0l-0.04126,-15.02643l0,0.00003l0,0l0,0l0,0.00009l0,0l0,0l0,0l0,0l0,0l0,0l0,0l-0.00006,0l0,0l-0.00006,0l0,0l0,0l-0.00006,0l0,0l-0.00006,0l-0.00006,0l0,0l0,0l-0.00006,0l0,0l-0.00006,0l0,0l-0.00006,0l0,0l0,0z" stroke-dashoffset="0" stroke-dasharray="4, 4" stroke-miterlimit="4" stroke-width="4" fill-rule="evenodd" fill-opacity="0" fill="#ff69b4" id="svg_100"/>
    <path d="m723.93903,380.09839c-0.03033,-10.9982 -0.09058,-15.04507 -0.22491,-15.09595c-0.10089,-0.03824 -1.00415,1.01056 -2.00726,2.33063c-1.00299,1.3201 -1.88885,2.40015 -1.96851,2.40015c-0.07965,0 -2.14069,-1.53436 -4.58014,-3.4097l-4.43542,-3.40973l6.50653,-8.54852l6.50641,-8.54852l2.18469,0.00394l2.18457,0.00391l0.56641,1.1445c0.6908,1.39618 2.67664,3.68686 3.91455,4.51547c1.55243,1.03931 3.08905,1.5596 4.87726,1.65134c2.04675,0.10498 3.2099,-0.16721 5.10553,-1.19458c1.25525,-0.68097 1.74762,-1.08252 2.84778,-2.32516c0.73169,-0.82629 1.58264,-1.99908 1.89099,-2.60629l0.56073,-1.10397l2.19281,-0.05103l2.19275,-0.05103l6.13098,8.0517c3.37195,4.42847 6.29645,8.27505 6.49982,8.54803l0.36896,0.49631l-1.50171,1.17767c-0.82593,0.6478 -2.85486,2.21735 -4.50861,3.48767l-3.00714,2.31012l-1.84778,-2.45523c-1.04138,-1.38391 -1.95349,-2.43753 -2.09021,-2.41449c-0.21307,0.03592 -0.24774,1.87674 -0.2843,15.08014l-0.0412,15.03894l-13.99591,0l-13.99591,0l-0.04126,-15.02643l0,0.00003l0,0l0,0l0,0.00009l0,0l0,0l0,0l0,0l0,0l0,0l0,0l-0.00006,0l0,0l-0.00006,0l0,0l0,0l-0.00006,0l0,0l-0.00006,0l-0.00006,0l0,0l0,0l-0.00006,0l0,0l-0.00006,0l0,0l-0.00006,0l0,0l0,0z" stroke-dashoffset="0" stroke-dasharray="4, 4" stroke-miterlimit="4" stroke-width="4" fill-rule="evenodd" fill-opacity="0" fill="#ff69b4" id="svg_101"/>
   </g>
  </g>
  <g id="svg_102">
   <g id="svg_103">
    <path stroke="black" d="m714.58765,215.54167l-13.27405,17.43153l9.50507,7.31139l3.90204,-5.12419l0,30.29791l28.5614,0l0,-30.29463l3.89923,5.12091l9.50507,-7.31139l-13.27124,-17.43153l-0.13306,0.10197l0,-0.10197l-4.54419,0c-1.89032,4.41472 -5.54291,7.40677 -9.73645,7.40677c-4.19354,0 -7.84906,-2.99202 -9.73938,-7.40677l-4.54138,0l0,0.10197l-0.13306,-0.10197z" stroke-dashoffset="0" stroke-miterlimit="3.5" stroke-linejoin="bevel" stroke-linecap="square" stroke-width="3" fill="#B22222" id="svg_104"/>
    <path d="m714.93903,250.09839c-0.03033,-10.9982 -0.09058,-15.04507 -0.22491,-15.09595c-0.10089,-0.03824 -1.00415,1.01056 -2.00726,2.33063c-1.00299,1.3201 -1.88885,2.40016 -1.96851,2.40016c-0.07965,0 -2.14069,-1.53438 -4.58014,-3.40971l-4.43542,-3.40973l6.50653,-8.54852l6.50641,-8.54851l2.18469,0.00391l2.18457,0.00395l0.56641,1.1445c0.6908,1.39601 2.67664,3.68666 3.91455,4.51546c1.55243,1.03929 3.08905,1.5596 4.87726,1.65132c2.04675,0.10501 3.2099,-0.16719 5.10553,-1.19481c1.25525,-0.68074 1.74762,-1.08241 2.84778,-2.32515c0.73169,-0.82629 1.58264,-1.9991 1.89099,-2.60629l0.56073,-1.10399l2.19281,-0.05101l2.19275,-0.05104l6.13098,8.05171c3.37195,4.42844 6.29645,8.27504 6.49982,8.54802l0.36896,0.49631l-1.50171,1.17773c-0.82593,0.64777 -2.85486,2.21729 -4.50861,3.48787l-3.00714,2.31012l-1.84778,-2.45543c-1.04138,-1.38394 -1.95349,-2.43756 -2.09021,-2.41452c-0.21307,0.03589 -0.24774,1.87685 -0.2843,15.08011l-0.0412,15.03917l-13.99591,0l-13.99591,0l-0.04126,-15.02643l0,0.00003l0,0l0,0l0,0.00008l0,0l0,0l0,0l0,0l0,0l0,0l0,0l-0.00006,0l0,0l-0.00006,0l0,0l0,0l-0.00006,0l0,0l-0.00006,0l-0.00006,0l0,0l0,0l-0.00006,0l0,0l-0.00006,0l0,0l-0.00006,0l0,0l0,0.00003l0,0.00003l0,-0.00003l0,-0.00002z" stroke-dashoffset="0" stroke-dasharray="4, 4" stroke-miterlimit="4" stroke-width="4" fill-rule="evenodd" fill-opacity="0" fill="#ff69b4" id="svg_105"/>
    <path d="m714.93903,250.09839c-0.03033,-10.9982 -0.09058,-15.04507 -0.22491,-15.09595c-0.10089,-0.03824 -1.00415,1.01056 -2.00726,2.33063c-1.00299,1.3201 -1.88885,2.40016 -1.96851,2.40016c-0.07965,0 -2.14069,-1.53438 -4.58014,-3.40971l-4.43542,-3.40973l6.50653,-8.54852l6.50641,-8.54851l2.18469,0.00391l2.18457,0.00395l0.56641,1.1445c0.6908,1.39601 2.67664,3.68666 3.91455,4.51546c1.55243,1.03929 3.08905,1.5596 4.87726,1.65132c2.04675,0.10501 3.2099,-0.16719 5.10553,-1.19481c1.25525,-0.68074 1.74762,-1.08241 2.84778,-2.32515c0.73169,-0.82629 1.58264,-1.9991 1.89099,-2.60629l0.56073,-1.10399l2.19281,-0.05101l2.19275,-0.05104l6.13098,8.05171c3.37195,4.42844 6.29645,8.27504 6.49982,8.54802l0.36896,0.49631l-1.50171,1.17773c-0.82593,0.64777 -2.85486,2.21729 -4.50861,3.48787l-3.00714,2.31012l-1.84778,-2.45543c-1.04138,-1.38394 -1.95349,-2.43756 -2.09021,-2.41452c-0.21307,0.03589 -0.24774,1.87685 -0.2843,15.08011l-0.0412,15.03917l-13.99591,0l-13.99591,0l-0.04126,-15.02643l0,0.00003l0,0l0,0l0,0.00008l0,0l0,0l0,0l0,0l0,0l0,0l0,0l-0.00006,0l0,0l-0.00006,0l0,0l0,0l-0.00006,0l0,0l-0.00006,0l-0.00006,0l0,0l0,0l-0.00006,0l0,0l-0.00006,0l0,0l-0.00006,0l0,0l0,0.00003l0,0.00003l0,-0.00003l0,-0.00002z" stroke-dashoffset="0" stroke-dasharray="4, 4" stroke-miterlimit="4" stroke-width="4" fill-rule="evenodd" fill-opacity="0" fill="#ff69b4" id="svg_106"/>
   </g>
  </g>
  <g id="svg_107">
   <g id="svg_108">
    <path stroke="black" d="m684.58765,475.54169l-13.27405,17.43152l9.50507,7.3114l3.90204,-5.12421l0,30.29791l28.5614,0l0,-30.29462l3.89923,5.12091l9.50507,-7.3114l-13.27124,-17.43152l-0.13306,0.10196l0,-0.10196l-4.54419,0c-1.89032,4.41473 -5.54291,7.40677 -9.73645,7.40677c-4.19354,0 -7.84906,-2.99203 -9.73938,-7.40677l-4.54138,0l0,0.10196l-0.13306,-0.10196z" stroke-dashoffset="0" stroke-miterlimit="3.5" stroke-linejoin="bevel" stroke-linecap="square" stroke-width="3" fill="#B22222" id="svg_109"/>
    <path d="m684.93903,510.09839c-0.03033,-10.9982 -0.09058,-15.04507 -0.22491,-15.09595c-0.10089,-0.03824 -1.00415,1.01056 -2.00726,2.33063c-1.00299,1.3201 -1.88885,2.40015 -1.96851,2.40015c-0.07965,0 -2.14069,-1.53436 -4.58014,-3.4097l-4.43542,-3.40973l6.50653,-8.54852l6.50641,-8.54852l2.18469,0.00394l2.18457,0.00391l0.56641,1.1445c0.6908,1.39618 2.67664,3.68686 3.91455,4.51547c1.55243,1.03931 3.08905,1.5596 4.87726,1.65134c2.04675,0.10498 3.2099,-0.16721 5.10553,-1.19455c1.25525,-0.681 1.74762,-1.08255 2.84778,-2.32498c0.73169,-0.82629 1.58264,-1.99911 1.89099,-2.60629l0.56073,-1.104l2.19281,-0.05099l2.19275,-0.05103l6.13098,8.05167c3.37195,4.42847 6.29645,8.27509 6.49982,8.54807l0.36896,0.49631l-1.50171,1.1777c-0.82593,0.64777 -2.85486,2.21732 -4.50861,3.48788l-3.00714,2.31012l-1.84778,-2.45544c-1.04138,-1.38394 -1.95349,-2.43756 -2.09021,-2.41452c-0.21307,0.03592 -0.24774,1.87686 -0.2843,15.08014l-0.0412,15.03946l-13.99591,0l-13.99591,0l-0.04126,-15.0267l0,0.00003l0,0l0,0l0,0.00009l0,0l0,0l0,0l0,0l0,0l0,0l0,0l-0.00006,0l0,0l-0.00006,0l0,0l0,0l-0.00006,0l0,0l-0.00006,0l-0.00006,0l0,0l0,0l-0.00006,0l0,0l-0.00006,0l0,0l-0.00006,0l0,0l0,-0.00003l0,-0.00003l0,-0.00003l0,-0.00003l0,-0.00003l0,-0.00003l0,-0.00003l0,-0.00003l0,-0.00003l0,-0.00003l0,-0.00003l0,-0.00003l0,-0.00003l0,-0.00003l0,-0.00003z" stroke-dashoffset="0" stroke-dasharray="4, 4" stroke-miterlimit="4" stroke-width="4" fill-rule="evenodd" fill-opacity="0" fill="#ff69b4" id="svg_110"/>
    <path d="m684.93903,510.09839c-0.03033,-10.9982 -0.09058,-15.04507 -0.22491,-15.09595c-0.10089,-0.03824 -1.00415,1.01056 -2.00726,2.33063c-1.00299,1.3201 -1.88885,2.40015 -1.96851,2.40015c-0.07965,0 -2.14069,-1.53436 -4.58014,-3.4097l-4.43542,-3.40973l6.50653,-8.54852l6.50641,-8.54852l2.18469,0.00394l2.18457,0.00391l0.56641,1.1445c0.6908,1.39618 2.67664,3.68686 3.91455,4.51547c1.55243,1.03931 3.08905,1.5596 4.87726,1.65134c2.04675,0.10498 3.2099,-0.16721 5.10553,-1.19455c1.25525,-0.681 1.74762,-1.08255 2.84778,-2.32498c0.73169,-0.82629 1.58264,-1.99911 1.89099,-2.60629l0.56073,-1.104l2.19281,-0.05099l2.19275,-0.05103l6.13098,8.05167c3.37195,4.42847 6.29645,8.27509 6.49982,8.54807l0.36896,0.49631l-1.50171,1.1777c-0.82593,0.64777 -2.85486,2.21732 -4.50861,3.48788l-3.00714,2.31012l-1.84778,-2.45544c-1.04138,-1.38394 -1.95349,-2.43756 -2.09021,-2.41452c-0.21307,0.03592 -0.24774,1.87686 -0.2843,15.08014l-0.0412,15.03946l-13.99591,0l-13.99591,0l-0.04126,-15.0267l0,0.00003l0,0l0,0l0,0.00009l0,0l0,0l0,0l0,0l0,0l0,0l0,0l-0.00006,0l0,0l-0.00006,0l0,0l0,0l-0.00006,0l0,0l-0.00006,0l-0.00006,0l0,0l0,0l-0.00006,0l0,0l-0.00006,0l0,0l-0.00006,0l0,0l0,-0.00003l0,-0.00003l0,-0.00003l0,-0.00003l0,-0.00003l0,-0.00003l0,-0.00003l0,-0.00003l0,-0.00003l0,-0.00003l0,-0.00003l0,-0.00003l0,-0.00003l0,-0.00003l0,-0.00003z" stroke-dashoffset="0" stroke-dasharray="4, 4" stroke-miterlimit="4" stroke-width="4" fill-rule="evenodd" fill-opacity="0" fill="#ff69b4" id="svg_111"/>
   </g>
  </g>
  <g id="svg_112">
   <g id="svg_113">
    <path stroke="black" d="m587.58765,392.54169l-13.27405,17.43152l9.50507,7.3114l3.90204,-5.12421l0,30.29791l28.5614,0l0,-30.29462l3.89923,5.12091l9.50507,-7.3114l-13.27124,-17.43152l-0.13306,0.10196l0,-0.10196l-4.54419,0c-1.89032,4.41473 -5.54291,7.40677 -9.73645,7.40677c-4.19354,0 -7.84906,-2.99203 -9.73938,-7.40677l-4.54138,0l0,0.10196l-0.13306,-0.10196z" stroke-dashoffset="0" stroke-miterlimit="3.5" stroke-linejoin="bevel" stroke-linecap="square" stroke-width="3" fill="#B22222" id="svg_114"/>
    <path d="m587.93903,427.09839c-0.03033,-10.9982 -0.09058,-15.04507 -0.22491,-15.09595c-0.10089,-0.03824 -1.00415,1.01056 -2.00726,2.33063c-1.00299,1.3201 -1.88885,2.40015 -1.96851,2.40015c-0.07965,0 -2.14069,-1.53436 -4.58014,-3.4097l-4.43542,-3.40973l6.50653,-8.54852l6.50641,-8.54852l2.18469,0.00394l2.18457,0.00391l0.56641,1.1445c0.6908,1.39618 2.67664,3.68686 3.91455,4.51547c1.55243,1.03931 3.08905,1.5596 4.87726,1.65134c2.04675,0.10498 3.2099,-0.16721 5.10553,-1.19455c1.25525,-0.681 1.74762,-1.08255 2.84778,-2.32498c0.73169,-0.82629 1.58264,-1.99911 1.89099,-2.60629l0.56073,-1.104l2.19281,-0.05099l2.19275,-0.05103l6.13098,8.05167c3.37195,4.42847 6.29645,8.27509 6.49982,8.54807l0.36896,0.49631l-1.50171,1.1777c-0.82593,0.64777 -2.85486,2.21732 -4.50861,3.48788l-3.00714,2.31012l-1.84778,-2.45544c-1.04138,-1.38394 -1.95349,-2.43756 -2.09021,-2.41452c-0.21307,0.03592 -0.24774,1.87686 -0.2843,15.08014l-0.0412,15.03918l-13.99591,0l-13.99591,0l-0.04126,-15.02643l0,0.00003l0,0l0,0l0,0.00009l0,0l0,0l0,0l0,0l0,0l0,0l0,0l-0.00006,0l0,0l-0.00006,0l0,0l0,0l-0.00006,0l0,0l-0.00006,0l-0.00006,0l0,0l0,0l-0.00006,0l0,0l-0.00006,0l0,0l-0.00006,0l0,0l0,-0.00003l0,-0.00003l0,-0.00003l0,-0.00003l0,-0.00003l0,-0.00003l0,-0.00003l0,-0.00003l0,-0.00003l0,-0.00003l0,-0.00003l0,-0.00003l0,-0.00003l0,-0.00003l0,-0.00003z" stroke-dashoffset="0" stroke-dasharray="4, 4" stroke-miterlimit="4" stroke-width="4" fill-rule="evenodd" fill-opacity="0" fill="#ff69b4" id="svg_115"/>
    <path d="m587.93903,427.09839c-0.03033,-10.9982 -0.09058,-15.04507 -0.22491,-15.09595c-0.10089,-0.03824 -1.00415,1.01056 -2.00726,2.33063c-1.00299,1.3201 -1.88885,2.40015 -1.96851,2.40015c-0.07965,0 -2.14069,-1.53436 -4.58014,-3.4097l-4.43542,-3.40973l6.50653,-8.54852l6.50641,-8.54852l2.18469,0.00394l2.18457,0.00391l0.56641,1.1445c0.6908,1.39618 2.67664,3.68686 3.91455,4.51547c1.55243,1.03931 3.08905,1.5596 4.87726,1.65134c2.04675,0.10498 3.2099,-0.16721 5.10553,-1.19455c1.25525,-0.681 1.74762,-1.08255 2.84778,-2.32498c0.73169,-0.82629 1.58264,-1.99911 1.89099,-2.60629l0.56073,-1.104l2.19281,-0.05099l2.19275,-0.05103l6.13098,8.05167c3.37195,4.42847 6.29645,8.27509 6.49982,8.54807l0.36896,0.49631l-1.50171,1.1777c-0.82593,0.64777 -2.85486,2.21732 -4.50861,3.48788l-3.00714,2.31012l-1.84778,-2.45544c-1.04138,-1.38394 -1.95349,-2.43756 -2.09021,-2.41452c-0.21307,0.03592 -0.24774,1.87686 -0.2843,15.08014l-0.0412,15.03918l-13.99591,0l-13.99591,0l-0.04126,-15.02643l0,0.00003l0,0l0,0l0,0.00009l0,0l0,0l0,0l0,0l0,0l0,0l0,0l-0.00006,0l0,0l-0.00006,0l0,0l0,0l-0.00006,0l0,0l-0.00006,0l-0.00006,0l0,0l0,0l-0.00006,0l0,0l-0.00006,0l0,0l-0.00006,0l0,0l0,-0.00003l0,-0.00003l0,-0.00003l0,-0.00003l0,-0.00003l0,-0.00003l0,-0.00003l0,-0.00003l0,-0.00003l0,-0.00003l0,-0.00003l0,-0.00003l0,-0.00003l0,-0.00003l0,-0.00003z" stroke-dashoffset="0" stroke-dasharray="4, 4" stroke-miterlimit="4" stroke-width="4" fill-rule="evenodd" fill-opacity="0" fill="#ff69b4" id="svg_116"/>
   </g>
  </g>
  <g id="svg_117">
   <g id="svg_118">
    <path stroke="black" d="m650.58765,119.54167l-13.27405,17.43153l9.50507,7.31139l3.90204,-5.12419l0,30.29791l28.5614,0l0,-30.29463l3.89923,5.12091l9.50507,-7.31139l-13.27124,-17.43153l-0.13306,0.10197l0,-0.10197l-4.54419,0c-1.89032,4.41473 -5.54291,7.40677 -9.73645,7.40677c-4.19354,0 -7.84906,-2.99203 -9.73938,-7.40677l-4.54138,0l0,0.10197l-0.13306,-0.10197z" stroke-dashoffset="0" stroke-miterlimit="3.5" stroke-linejoin="bevel" stroke-linecap="square" stroke-width="3" fill="#B22222" id="svg_119"/>
    <path d="m650.93903,154.09839c-0.03033,-10.9982 -0.09058,-15.04506 -0.22491,-15.09595c-0.10089,-0.03824 -1.00415,1.01056 -2.00726,2.33063c-1.00299,1.3201 -1.88885,2.40016 -1.96851,2.40016c-0.07965,0 -2.14069,-1.53438 -4.58014,-3.40971l-4.43542,-3.40973l6.50653,-8.54851l6.50641,-8.54853l2.18469,0.00392l2.18457,0.00391l0.56641,1.1445c0.6908,1.39602 2.67664,3.68667 3.91455,4.51546c1.55243,1.03928 3.08905,1.5596 4.87726,1.65131c2.04675,0.10501 3.2099,-0.16718 5.10553,-1.19481c1.25525,-0.68074 1.74762,-1.08241 2.84778,-2.32515c0.73169,-0.82629 1.58264,-1.99911 1.89099,-2.60629l0.56073,-1.104l2.19281,-0.05101l2.19275,-0.05103l6.13098,8.05167c3.37195,4.42846 6.29645,8.27508 6.49982,8.54806l0.36896,0.49632l-1.50171,1.17772c-0.82593,0.64777 -2.85486,2.2173 -4.50861,3.48787l-3.00714,2.31012l-1.84778,-2.45543c-1.04138,-1.38394 -1.95349,-2.43756 -2.09021,-2.41452c-0.21307,0.03589 -0.24774,1.87685 -0.2843,15.08011l-0.0412,15.03917l-13.99591,0l-13.99591,0l-0.04126,-15.02643l0,0.00003l0,0l0,0l0,0.00008l0,0l0,0l0,0l0,0l0,0l0,0l0,0l-0.00006,0l0,0l-0.00006,0l0,0l0,0l-0.00006,0l0,0l-0.00006,0l-0.00006,0l0,0l0,0l-0.00006,0l0,0l-0.00006,0l0,0l-0.00006,0l0,0l0,0.00003l0,0.00002l0,0.00003l0,-0.00002z" stroke-dashoffset="0" stroke-dasharray="4, 4" stroke-miterlimit="4" stroke-width="4" fill-rule="evenodd" fill-opacity="0" fill="#ff69b4" id="svg_120"/>
    <path d="m650.93903,154.09839c-0.03033,-10.9982 -0.09058,-15.04506 -0.22491,-15.09595c-0.10089,-0.03824 -1.00415,1.01056 -2.00726,2.33063c-1.00299,1.3201 -1.88885,2.40016 -1.96851,2.40016c-0.07965,0 -2.14069,-1.53438 -4.58014,-3.40971l-4.43542,-3.40973l6.50653,-8.54851l6.50641,-8.54853l2.18469,0.00392l2.18457,0.00391l0.56641,1.1445c0.6908,1.39602 2.67664,3.68667 3.91455,4.51546c1.55243,1.03928 3.08905,1.5596 4.87726,1.65131c2.04675,0.10501 3.2099,-0.16718 5.10553,-1.19481c1.25525,-0.68074 1.74762,-1.08241 2.84778,-2.32515c0.73169,-0.82629 1.58264,-1.99911 1.89099,-2.60629l0.56073,-1.104l2.19281,-0.05101l2.19275,-0.05103l6.13098,8.05167c3.37195,4.42846 6.29645,8.27508 6.49982,8.54806l0.36896,0.49632l-1.50171,1.17772c-0.82593,0.64777 -2.85486,2.2173 -4.50861,3.48787l-3.00714,2.31012l-1.84778,-2.45543c-1.04138,-1.38394 -1.95349,-2.43756 -2.09021,-2.41452c-0.21307,0.03589 -0.24774,1.87685 -0.2843,15.08011l-0.0412,15.03917l-13.99591,0l-13.99591,0l-0.04126,-15.02643l0,0.00003l0,0l0,0l0,0.00008l0,0l0,0l0,0l0,0l0,0l0,0l0,0l-0.00006,0l0,0l-0.00006,0l0,0l0,0l-0.00006,0l0,0l-0.00006,0l-0.00006,0l0,0l0,0l-0.00006,0l0,0l-0.00006,0l0,0l-0.00006,0l0,0l0,0.00003l0,0.00002l0,0.00003l0,-0.00002z" stroke-dashoffset="0" stroke-dasharray="4, 4" stroke-miterlimit="4" stroke-width="4" fill-rule="evenodd" fill-opacity="0" fill="#ff69b4" id="svg_121"/>
   </g>
  </g>
  <g id="svg_122">
   <g id="svg_123">
    <path stroke="black" d="m578.58765,220.54167l-13.27405,17.43153l9.50507,7.31139l3.90204,-5.12419l0,30.29791l28.5614,0l0,-30.29463l3.89923,5.12091l9.50507,-7.31139l-13.27124,-17.43153l-0.13306,0.10197l0,-0.10197l-4.54419,0c-1.89032,4.41473 -5.54291,7.40677 -9.73645,7.40677c-4.19354,0 -7.84906,-2.99203 -9.73938,-7.40677l-4.54138,0l0,0.10197l-0.13306,-0.10197z" stroke-dashoffset="0" stroke-miterlimit="3.5" stroke-linejoin="bevel" stroke-linecap="square" stroke-width="3" fill="#B22222" id="svg_124"/>
    <path d="m578.93903,255.09839c-0.03033,-10.9982 -0.09058,-15.04507 -0.22491,-15.09595c-0.10089,-0.03824 -1.00415,1.01056 -2.00726,2.33063c-1.00299,1.3201 -1.88885,2.40016 -1.96851,2.40016c-0.07965,0 -2.14069,-1.53438 -4.58014,-3.40971l-4.43542,-3.40973l6.50653,-8.54852l6.50641,-8.54851l2.18469,0.00391l2.18457,0.00392l0.56641,1.1445c0.6908,1.39601 2.67664,3.68666 3.91455,4.51547c1.55243,1.03929 3.08905,1.55959 4.87726,1.65132c2.04675,0.105 3.2099,-0.16719 5.10553,-1.19482c1.25525,-0.68073 1.74762,-1.08241 2.84778,-2.32515c0.73169,-0.82628 1.58264,-1.9991 1.89099,-2.60629l0.56073,-1.10399l2.19281,-0.05101l2.19275,-0.05104l6.13098,8.05171c3.37195,4.42845 6.29645,8.27504 6.49982,8.54802l0.36896,0.49632l-1.50171,1.17772c-0.82593,0.64777 -2.85486,2.2173 -4.50861,3.48787l-3.00714,2.31012l-1.84778,-2.45543c-1.04138,-1.38394 -1.95349,-2.43756 -2.09021,-2.41452c-0.21307,0.0359 -0.24774,1.87686 -0.2843,15.08012l-0.0412,15.03918l-13.99591,0l-13.99591,0l-0.04126,-15.02643l0,0.00003l0,0l0,0l0,0.00008l0,0l0,0l0,0l0,0l0,0l0,0l0,0l-0.00006,0l0,0l-0.00006,0l0,0l0,0l-0.00006,0l0,0l-0.00006,0l-0.00006,0l0,0l0,0l-0.00006,0l0,0l-0.00006,0l0,0l-0.00006,0l0,0l0,0.00002z" stroke-dashoffset="0" stroke-dasharray="4, 4" stroke-miterlimit="4" stroke-width="4" fill-rule="evenodd" fill-opacity="0" fill="#ff69b4" id="svg_125"/>
    <path d="m578.93903,255.09839c-0.03033,-10.9982 -0.09058,-15.04507 -0.22491,-15.09595c-0.10089,-0.03824 -1.00415,1.01056 -2.00726,2.33063c-1.00299,1.3201 -1.88885,2.40016 -1.96851,2.40016c-0.07965,0 -2.14069,-1.53438 -4.58014,-3.40971l-4.43542,-3.40973l6.50653,-8.54852l6.50641,-8.54851l2.18469,0.00391l2.18457,0.00392l0.56641,1.1445c0.6908,1.39601 2.67664,3.68666 3.91455,4.51547c1.55243,1.03929 3.08905,1.55959 4.87726,1.65132c2.04675,0.105 3.2099,-0.16719 5.10553,-1.19482c1.25525,-0.68073 1.74762,-1.08241 2.84778,-2.32515c0.73169,-0.82628 1.58264,-1.9991 1.89099,-2.60629l0.56073,-1.10399l2.19281,-0.05101l2.19275,-0.05104l6.13098,8.05171c3.37195,4.42845 6.29645,8.27504 6.49982,8.54802l0.36896,0.49632l-1.50171,1.17772c-0.82593,0.64777 -2.85486,2.2173 -4.50861,3.48787l-3.00714,2.31012l-1.84778,-2.45543c-1.04138,-1.38394 -1.95349,-2.43756 -2.09021,-2.41452c-0.21307,0.0359 -0.24774,1.87686 -0.2843,15.08012l-0.0412,15.03918l-13.99591,0l-13.99591,0l-0.04126,-15.02643l0,0.00003l0,0l0,0l0,0.00008l0,0l0,0l0,0l0,0l0,0l0,0l0,0l-0.00006,0l0,0l-0.00006,0l0,0l0,0l-0.00006,0l0,0l-0.00006,0l-0.00006,0l0,0l0,0l-0.00006,0l0,0l-0.00006,0l0,0l-0.00006,0l0,0l0,0.00002z" stroke-dashoffset="0" stroke-dasharray="4, 4" stroke-miterlimit="4" stroke-width="4" fill-rule="evenodd" fill-opacity="0" fill="#ff69b4" id="svg_126"/>
   </g>
  </g>
  <g id="all2">
   <rect id="svg_76" height="85" width="1019" y="-2" x="-1" stroke-linecap="null" stroke-linejoin="null" stroke-dasharray="null" stroke="#007f00" fill="#007f00"/>
   <rect id="homename" height="65" width="339" y="12" x="25" stroke-linecap="null" stroke-linejoin="null" stroke-dasharray="null" stroke="#007f00" fill="#ffffff"/>
   <rect id="awayname" height="65" width="339" y="12" x="653" stroke-linecap="null" stroke-linejoin="null" stroke-dasharray="null" stroke="#007f00" fill="#ffffff"/>
   <g id="idhomescore">
    <rect stroke="#007f00" id="homescore" height="59" width="65" y="12" x="420" stroke-linecap="null" stroke-linejoin="null" stroke-dasharray="null" fill="#ffffff"/>
   </g>
   <rect stroke="#007f00" id="awayscore" height="59" width="65" y="12" x="536" stroke-linecap="null" stroke-linejoin="null" stroke-dasharray="null" fill="#ffffff"/>
  </g>
 </g>
</svg>