<svg width="100%" height="100%" xmlns="http://www.w3.org/2000/svg">
 <!-- Created with SVG-edit - http://svg-edit.googlecode.com/ -->
 <g id="all">
  <title>Layer 1</title>
  <rect id="svg_1" fill="green" height="590.00001" width="914.00002" y="1" x="1"/>
  <rect stroke="#007f00" fill="#0ea00e" y="170" width="113" height="415" id="svg_1" x="0"/>
  <rect stroke="#007f00" fill="#0f9e0f" x="226" y="170" width="113" height="420" id="svg_2"/>
  <rect stroke="#007f00" fill="#0f9e0f" x="452" width="113" height="420" id="svg_3" y="170"/>
  <rect stroke="#007f00" fill="#0f9e0f" x="678" y="170" width="113" height="418" id="svg_4"/>
  <!-- Final lines on field -->
  <line stroke="#ffffff" fill="none" stroke-width="5" x1="10" y1="180" x2="10" y2="582" id="svg_6"/>
  <line stroke="#ffffff" fill="none" stroke-width="5" x1="905" y1="180" x2="905" y2="580" id="svg_7"/>
  <line stroke="#ffffff" id="svg_8" y2="180" x2="903.00002" y1="180" x1="7.65" stroke-width="5" fill="none"/>
  <line stroke="#ffffff" id="svg_9" y2="582.5" x2="904.675" y1="582.5" x1="10.32501" stroke-width="5" fill="none"/>
  <!-- small rectangle -->
  <path stroke="white" fill="black" d="m12,312.39999l55,0l0,144.20004l-55,0l0,-144.20004z" stroke-width="5" fill-opacity="0" id="svg_10"/>
  <path stroke="white" fill="black" id="svg_11" fill-opacity="0" stroke-width="5" d="m903,307.39999l-55,0l0,155.20004l55,0l0,-155.20004z"/>
  <!-- rectangle -->
  <path stroke="white" d="m11,244.39999l102,0l0,270.19998l-102,0l0,-270.19998z" stroke-width="5" fill-opacity="0" id="svg_12" fill="#ffffff"/>
  <path stroke="white" d="m802,260.39996l102,0l0,253.20007l-102,0l0,-253.20007z" stroke-width="5" fill-opacity="0" id="svg_13" fill="#ffffff"/>
  <!-- half circle -->
  <path id="svg_14" fill="none" stroke-width="5" stroke="white" d="m112,311.875a91.5,91.5 0 0 1 0,146.25l0,-146.25z"/>
  <path d="m802,312.875a91.5,91.5 0 0 0 0,146.25l0,-146.25z" stroke="white" stroke-width="5" fill="none" id="svg_15"/>
  <!-- corners -->
  <path id="svg_16" fill-opacity="0" stroke-width="5" stroke="white" d="m12,192a10,10 0 0 0 10,-10l-10,0l0,10z" fill="black"/>
  <path fill="black" d="m902,569a10,10 0 0 0 -10,10l10,0l0,-10z" stroke="white" stroke-width="5" fill-opacity="0" id="svg_17"/>
  <path id="svg_18" fill-opacity="0" stroke-width="5" stroke="white" d="m23,581a10,10 0 0 0 -10,-10l0,10l10,0z" fill="black"/>
  <path fill="black" d="m893,182a10,10 0 0 0 10,10l0,-10l-10,0z" stroke="white" stroke-width="5" fill-opacity="0" id="svg_19"/>
  <!-- middle circle -->
  <circle cx="455" cy="371" r="91.5" stroke="white" stroke-width="5" fill-opacity="0" id="svg_3" fill="black"/>
  <line stroke="white" fill="none" stroke-width="5" stroke-dasharray="null" stroke-linejoin="null" stroke-linecap="null" fill-opacity="0" x1="456" y1="177" x2="456" y2="580.00002" id="svg_20"/>
 </g>
</svg>